<?xml version="1.0" encoding="UTF-8" standalone="no"?>
<svg
   width="24"
   height="24"
   viewBox="0 0 24 24"
   version="1.1"
   id="svg1"
   sodipodi:docname="AAA_001.svg"
   inkscape:version="1.4.3 (0d15f75042, 2025-12-25)"
   xmlns:inkscape="http://www.inkscape.org/namespaces/inkscape"
   xmlns:sodipodi="http://sodipodi.sourceforge.net/DTD/sodipodi-0.dtd"
   xmlns="http://www.w3.org/2000/svg"
   xmlns:svg="http://www.w3.org/2000/svg">
  <defs
     id="defs1" />
  <sodipodi:namedview
     id="namedview1"
     pagecolor="#ffffff"
     bordercolor="#000000"
     borderopacity="0.25"
     inkscape:showpageshadow="2"
     inkscape:pageopacity="0.0"
     inkscape:pagecheckerboard="0"
     inkscape:deskcolor="#d1d1d1"
     showguides="true"
     inkscape:zoom="16.4375"
     inkscape:cx="13.992395"
     inkscape:cy="12.988593"
     inkscape:window-width="1920"
     inkscape:window-height="998"
     inkscape:window-x="1680"
     inkscape:window-y="0"
     inkscape:window-maximized="1"
     inkscape:current-layer="g9">
    <sodipodi:guide
       position="-8.4745269,1.8887978"
       orientation="1,0"
       id="guide1"
       inkscape:locked="false" />
  </sodipodi:namedview>
  <g
     id="g11"
     transform="matrix(0.0403284,0,0,0.0403284,4.0849062,4.0849062)"
     style="fill:#000000">
    <g
       id="g2"
       style="fill:#000000">
	<g
   id="g1"
   style="fill:#000000">
		
	</g>

</g>
    <g
       id="g4"
       style="fill:#000000">
	<g
   id="g3"
   style="fill:#000000">
		
	</g>

</g>
    <g
       id="g6"
       style="fill:#000000">
	<g
   id="g5"
   style="fill:#000000">
		
	</g>

</g>
    <g
       id="g8"
       style="fill:#000000">
	<g
   id="g7"
   style="fill:#000000">
		
	</g>

</g>
    <g
       id="g10"
       style="fill:#000000">
	<g
   id="g9"
   style="fill:#000000">
		
	<path
   id="path8"
   style="fill:#000000"
   d="M 313.083,2.1307169e-6 H 131.491 C 123.087,2.1307169e-6 115.2,3.2320021 109.253,9.1800021 L 57.018001,61.414 c -5.947,5.948 -9.18,13.834 -9.18,22.238 v 277.333 c 0,17.39 14.158,31.547 31.547,31.547 H 313.147 c 17.39,0 31.547,-14.158 31.547,-31.547 V 31.547 C 344.501,14.158 330.343,2.1307169e-6 313.083,2.1307169e-6 Z M 112.032,37.236 V 64.258 H 85.010001 Z m 210.683,79.58 h -40.598 c -6.012,0 -10.925,4.849 -10.925,10.925 0,6.012 4.848,10.925 10.925,10.925 h 40.598 v 19.394 h -14.869 c -6.012,0 -10.925,4.848 -10.925,10.925 0,6.012 4.849,10.925 10.925,10.925 h 14.869 v 181.139 c 0,5.366 -4.331,9.697 -9.632,9.697 H 79.192001 c -5.301,0 -9.632,-4.331 -9.632,-9.632 V 86.044 H 122.958 c 6.012,0 10.925,-4.848 10.925,-10.925 V 21.721 h 179.2 c 5.301,0 9.632,4.331 9.632,9.632 z m -64.194,46.546 c -39.887,-15.515 -84.752,-15.515 -124.638,0 -13.059,5.107 -21.786,18.101 -21.786,32.388 v 44.347 c -0.065,6.012 4.849,10.925 10.861,10.925 h 146.424 c 6.012,0 10.925,-4.848 10.925,-10.925 V 195.75 c 0,-14.287 -8.727,-27.281 -21.786,-32.388 z m 0,65.874 H 133.883 v -33.422 c 0,-5.301 3.168,-10.214 7.887,-12.024 34.844,-13.511 74.02,-13.511 108.865,0 4.719,1.875 7.887,6.659 7.887,12.024 v 33.422 z M 196.137,45.834 c -25.859,0 -46.998,21.075 -46.998,46.998 0,25.859 21.139,46.933 46.998,46.933 25.859,0 46.998,-21.075 46.998,-46.998 0,-25.923 -21.139,-46.933 -46.998,-46.933 z m 0,72.017 c -13.77,0 -25.083,-11.313 -25.083,-25.083 0,-13.77 11.248,-25.083 25.083,-25.083 13.835,0 25.083,11.313 25.083,25.083 0,13.769 -11.313,25.083 -25.083,25.083 z M 292.396,277.01 H 99.879001 c -6.012,0 -10.925,4.848 -10.925,10.925 0,6.012 4.849,10.925 10.925,10.925 H 292.461 c 6.012,0 10.925,-4.849 10.925,-10.925 -0.065,-6.076 -4.913,-10.925 -10.99,-10.925 z m 0,47.839 H 99.879001 c -6.012,0 -10.925,4.848 -10.925,10.925 0,6.012 4.849,10.925 10.925,10.925 H 292.461 c 6.012,0 10.925,-4.849 10.925,-10.925 -0.065,-6.077 -4.913,-10.925 -10.99,-10.925 z m 201.42706,-426.14006 v 595.11412 h -595.11412 v -595.11412 z" />
</g>

</g>
  </g>
</svg>
