<?xml version="1.0" encoding="UTF-8" standalone="no"?>
<!-- Created with Inkscape (http://www.inkscape.org/) -->

<svg
   width="52.701859mm"
   height="66.730042mm"
   viewBox="0 0 52.701859 66.730042"
   version="1.1"
   id="svg1"
   xml:space="preserve"
   inkscape:version="1.3.2 (091e20e, 2023-11-25, custom)"
   sodipodi:docname="faetec.svg"
   xmlns:inkscape="http://www.inkscape.org/namespaces/inkscape"
   xmlns:sodipodi="http://sodipodi.sourceforge.net/DTD/sodipodi-0.dtd"
   xmlns="http://www.w3.org/2000/svg"
   xmlns:svg="http://www.w3.org/2000/svg"><sodipodi:namedview
     id="namedview1"
     pagecolor="#505050"
     bordercolor="#eeeeee"
     borderopacity="1"
     inkscape:showpageshadow="0"
     inkscape:pageopacity="0"
     inkscape:pagecheckerboard="0"
     inkscape:deskcolor="#d1d1d1"
     inkscape:document-units="mm"
     inkscape:zoom="0.8365873"
     inkscape:cx="-22.711318"
     inkscape:cy="319.75145"
     inkscape:window-width="1366"
     inkscape:window-height="705"
     inkscape:window-x="-8"
     inkscape:window-y="695"
     inkscape:window-maximized="1"
     inkscape:current-layer="layer1" /><defs
     id="defs1" /><g
     inkscape:label="Camada 1"
     inkscape:groupmode="layer"
     id="layer1"
     transform="translate(-83.964501,-49.62701)"><path
       style="fill:#000000"
       d="m 109.24338,115.03767 -2.05917,-1.31935 -0.71882,1.19006 c -0.39536,0.65454 -0.83795,1.13593 -0.98354,1.06976 -3.3279,-1.51253 -3.67035,-1.59511 -6.614718,-1.59511 -2.596604,0 -3.095851,0.0795 -4.630208,0.7374 -0.945886,0.40557 -1.838854,0.78725 -1.984375,0.84818 -0.328005,0.13734 -2.588893,-3.53281 -2.429348,-3.94362 0.191622,-0.4934 3.958504,-1.9755 5.766517,-2.26887 3.547775,-0.57566 7.127842,-0.20803 10.088692,1.03599 l 1.79394,0.75373 0.68347,-1.16625 c 0.37591,-0.64144 0.72226,-1.16625 0.76966,-1.16625 0.0474,0 1.03927,0.59111 2.20414,1.31359 l 2.11795,1.31359 0.69229,-1.1813 c 0.38076,-0.64972 0.75154,-1.1813 0.82397,-1.1813 0.0724,0 0.63295,0.25628 1.24561,0.56952 3.34265,1.70898 8.67367,1.61971 11.48953,-0.19241 0.3223,-0.20741 0.64081,-0.37711 0.70779,-0.37711 0.11391,0 2.54267,3.88886 2.54267,4.07126 0,0.28666 -3.89415,1.79728 -5.50741,2.13643 -3.53971,0.74413 -7.82634,0.33084 -10.82971,-1.04415 -0.8088,-0.37028 -1.48714,-0.64176 -1.50741,-0.60329 -0.18442,0.34999 -1.49197,2.31891 -1.53996,2.31888 -0.0343,-2e-5 -0.98902,-0.59374 -2.12156,-1.31938 z m 11.43654,-1.88424 c -0.33441,-0.62485 -0.52153,-0.47038 -0.88957,0.73433 -0.14712,0.48158 -0.0887,0.55078 0.36487,0.43216 0.3414,-0.0893 0.55329,-0.008 0.57607,0.22037 0.0198,0.19887 0.0868,0.0998 0.1489,-0.22008 0.0621,-0.31991 -0.028,-0.84497 -0.20027,-1.16678 z m 1.21533,0.73399 c -0.14021,-0.55622 -0.13545,-0.55556 0.16196,0.0223 0.48234,0.93712 1.03792,0.76262 0.84239,-0.26458 -0.20341,-1.06859 -0.35226,-1.27049 -0.35226,-0.47781 v 0.60258 l -0.52036,-0.62463 -0.52037,-0.62462 -0.009,1.14009 c -0.006,0.72424 0.0916,1.07802 0.26655,0.96992 0.15144,-0.0936 0.21034,-0.42804 0.13089,-0.74322 z m -10.34702,0.20181 c 0.52636,-0.52636 0.53659,-1.33333 0.0194,-1.53179 -0.60218,-0.23108 -1.35606,1.03317 -0.92546,1.55201 0.40479,0.48775 0.39792,0.4879 0.90604,-0.0202 z m -0.64256,-0.64256 c 0.33423,-0.6245 0.92321,-0.71898 0.68977,-0.11065 -0.0883,0.23018 -0.1606,0.4683 -0.1606,0.52916 0,0.0609 -0.18278,0.11066 -0.40618,0.11066 -0.3242,0 -0.34902,-0.10682 -0.12299,-0.52917 z m 8.48888,0.0645 c 0.0966,-0.47207 0.081,-0.8583 -0.0346,-0.8583 -0.11558,0 -0.29208,0.37304 -0.39222,0.82898 -0.13393,0.6098 -0.24335,0.73222 -0.41384,0.46302 -0.18191,-0.28722 -0.23265,-0.26217 -0.23583,0.11646 -0.007,0.8446 0.88442,0.38897 1.07649,-0.55016 z m 5.00488,0.71358 c 0,-0.1541 -0.11907,-0.20661 -0.26459,-0.11667 -0.37677,0.23286 -0.32803,-0.22713 0.0662,-0.62422 0.26518,-0.26714 0.23896,-0.29824 -0.13229,-0.1569 -0.26828,0.10214 -0.46302,0.0531 -0.46302,-0.11662 0,-0.16109 0.11906,-0.29289 0.26458,-0.29289 0.14552,0 0.26459,-0.11532 0.26459,-0.25628 0,-0.14095 -0.1786,-0.18774 -0.39688,-0.10398 -0.24487,0.094 -0.39687,0.49612 -0.39687,1.05003 0,0.72134 0.10397,0.89773 0.52916,0.89773 0.29104,0 0.52917,-0.12609 0.52917,-0.2802 z m -31.286985,-0.45899 c -0.538064,-0.10849 -0.611061,-0.47989 -0.132292,-0.67308 0.200752,-0.081 0.152024,-0.14166 -0.123988,-0.15434 -0.29331,-0.0135 -0.400249,-0.16283 -0.30127,-0.42076 0.110972,-0.28919 0.03234,-0.35341 -0.28407,-0.23199 -0.240634,0.0923 -0.398898,0.24252 -0.351698,0.33373 0.0472,0.0912 0.245644,0.48384 0.440986,0.8725 0.24611,0.48968 0.487233,0.65457 0.78526,0.53699 0.384327,-0.15163 0.380823,-0.17962 -0.03293,-0.26305 z m 31.842755,-0.86481 c -0.25197,-0.63074 -0.25802,-0.62698 -0.27442,0.17084 -0.009,0.44869 0.0725,0.90586 0.18167,1.01593 0.31413,0.3168 0.37619,-0.47726 0.0928,-1.18677 z m -19.61632,0.69067 c 0.4271,-0.51463 0.2466,-1.3084 -0.32245,-1.41799 -0.48208,-0.0928 -1.12774,1.10053 -0.84391,1.55978 0.22437,0.36303 0.80608,0.29232 1.16636,-0.14179 z m -0.77479,-0.0572 c -0.0137,-0.50265 0.29457,-1.14611 0.54906,-1.14611 0.34675,0 0.2888,0.35858 -0.15219,0.94161 -0.21365,0.28248 -0.39224,0.3745 -0.39687,0.2045 z m 12.22856,0.26616 c -0.47558,-0.1919 -0.40761,-0.61852 0.0985,-0.61852 0.35158,0 0.36966,-0.0718 0.0999,-0.39688 -0.27253,-0.32838 -0.24387,-0.40008 0.16605,-0.41547 0.45929,-0.0172 0.45683,-0.0339 -0.0337,-0.22909 -0.41869,-0.16654 -0.57581,-0.078 -0.75257,0.4242 -0.26358,0.74886 -0.0641,1.41952 0.41353,1.3901 0.26555,-0.0164 0.26735,-0.0498 0.008,-0.15434 z m 9.29666,-0.2878 c -0.12431,-0.39534 -0.0844,-0.38795 0.27289,0.0506 0.30188,0.37049 0.41747,0.40735 0.41486,0.1323 -0.008,-0.87627 -0.35212,-1.57193 -0.7769,-1.57193 -0.68421,0 -0.79066,0.23247 -0.49491,1.08083 0.28347,0.81318 0.83422,1.10383 0.58406,0.30823 z M 94.551792,112.6404 c -0.578266,-0.46825 -0.816308,-0.95888 -0.314868,-0.64897 0.145521,0.0899 0.264583,0.0374 0.264583,-0.11668 0,-0.37771 -0.714882,-0.35727 -0.952524,0.0272 -0.107647,0.17418 0.07032,0.51823 0.410572,0.79375 0.482704,0.39087 0.513866,0.48632 0.158774,0.48632 -0.242991,0 -0.368018,0.11938 -0.277838,0.26529 0.107592,0.17409 0.357661,0.16164 0.727358,-0.0362 l 0.563394,-0.30152 z m 16.009518,-0.68465 c -0.0802,-0.0802 -0.33316,0.21655 -0.56217,0.65941 -0.59847,1.15731 -0.50473,1.38026 0.15025,0.35737 0.30674,-0.47905 0.49211,-0.9366 0.41192,-1.01678 z m -6.77443,0.77086 c 0.21,-0.56886 -0.26685,-1.39664 -0.80453,-1.39664 -0.27295,0 -0.59056,1.56163 -0.3852,1.89391 0.25959,0.42002 0.95903,0.12768 1.18973,-0.49727 z m -0.88346,-0.20601 c 0.0696,-0.3638 0.23163,-0.66146 0.36018,-0.66146 0.27301,0 0.29863,0.3168 0.0731,0.9044 -0.25477,0.66392 -0.57262,0.48572 -0.43332,-0.24294 z m 12.92224,0.26326 c 0.34997,-0.53411 0.37054,-0.73958 0.106,-1.05834 -0.47676,-0.57446 -0.72901,-0.49233 -1.18273,0.38506 -0.37022,0.71593 -0.36531,0.80294 0.0593,1.05028 0.25466,0.14833 0.49004,0.27331 0.52306,0.27773 0.033,0.004 0.25547,-0.2902 0.49432,-0.65473 z m -0.94718,-0.0648 c 0.002,-0.10914 0.11481,-0.37358 0.25019,-0.58765 0.30484,-0.48201 0.66247,-0.18055 0.4482,0.37781 -0.15824,0.41237 -0.70589,0.57692 -0.69839,0.20984 z m 13.38608,0.35141 c 0.19185,-0.49994 -0.34783,-1.47588 -0.81612,-1.47588 -0.57369,0 -0.70505,0.42243 -0.36407,1.17079 0.33866,0.7433 0.95127,0.90166 1.18019,0.30509 z m -0.77833,-0.0648 c -0.26385,-0.26385 -0.2129,-1.20033 0.0563,-1.03398 0.30329,0.18744 0.57022,1.21037 0.31585,1.21037 -0.10765,0 -0.27509,-0.0794 -0.37211,-0.17639 z m -31.491739,-0.8413 c -0.02232,-0.85115 -0.106238,-0.99691 -0.512737,-0.89061 -0.344121,0.09 -0.403685,0.20947 -0.203982,0.40917 0.155138,0.15514 0.282069,0.55592 0.282069,0.89061 0,0.3347 0.1038,0.60855 0.230667,0.60855 0.126868,0 0.21866,-0.45798 0.203983,-1.01772 z m 13.846969,-0.47533 c 0.0133,-0.68143 -0.78916,-0.57121 -1.32555,0.18208 -0.30617,0.42999 -0.43052,0.7818 -0.27633,0.7818 0.1542,0 0.42907,-0.23813 0.61083,-0.52917 0.18176,-0.29104 0.42764,-0.52916 0.54641,-0.52916 0.11877,0 0.0306,0.26461 -0.19593,0.58803 -0.22654,0.32342 -0.40923,0.71038 -0.406,0.8599 0.008,0.36512 1.03908,-0.96845 1.04657,-1.35348 z m -11.900369,1.06951 c 0,-0.0147 -0.132596,-0.40703 -0.294658,-0.87192 -0.3533,-1.01348 -0.865777,-0.9476 -0.973943,0.12521 -0.06781,0.67259 0.0098,0.77337 0.595312,0.77337 0.370309,0 0.673289,-0.012 0.673289,-0.0267 z m -1.058334,-0.6348 c 0,-0.14552 0.126089,-0.26458 0.280199,-0.26458 0.154109,0 0.206613,0.11906 0.116676,0.26458 -0.08994,0.14552 -0.216026,0.26459 -0.280198,0.26459 -0.06417,0 -0.116677,-0.11907 -0.116677,-0.26459 z m 2.600875,-0.10584 c 0.09159,-0.80001 -0.322258,-1.26261 -0.923235,-1.032 -0.368888,0.14156 -0.49341,1.44013 -0.169188,1.76435 0.402068,0.40207 1.009135,-0.005 1.092423,-0.73235 z m -0.748791,-0.0421 c 0,-0.37239 0.107885,-0.6104 0.239744,-0.52891 0.131859,0.0815 0.177504,0.38618 0.101433,0.67708 -0.19038,0.72801 -0.341177,0.66252 -0.341177,-0.14817 z m 2.542049,0.26082 c 0.19643,-0.78267 -0.19901,-1.31473 -0.80447,-1.0824 -0.25031,0.0961 -0.41466,0.47703 -0.41466,0.96118 0,1.05687 0.96033,1.15236 1.21913,0.12122 z m -0.9505,0.0855 c 0.002,-0.1819 0.11947,-0.50932 0.26053,-0.7276 0.19987,-0.30927 0.25738,-0.23626 0.26054,0.33072 0.002,0.40019 -0.11501,0.72761 -0.26054,0.72761 -0.14552,0 -0.26276,-0.14883 -0.26053,-0.33073 z m 23.82964,-4.36563 c -0.14966,-0.25696 -0.27326,-0.31583 -0.27773,-0.13229 -0.0113,0.46496 -1.24238,0.41403 -1.42386,-0.0589 -0.0845,-0.22013 0.081,-0.55113 0.38049,-0.76087 0.44826,-0.31397 0.46696,-0.39543 0.12121,-0.5281 -0.22484,-0.0863 -0.4088,-0.39874 -0.4088,-0.69434 0,-0.39692 0.17298,-0.53747 0.66146,-0.53747 0.4444,0 0.66146,0.1466 0.66146,0.44676 0,0.37295 0.0911,0.34902 0.55115,-0.14483 0.45684,-0.49035 0.49341,-0.66119 0.21371,-0.99821 -0.43561,-0.52487 -0.43791,-2.91318 -0.003,-3.34066 0.26707,-0.26264 0.43681,-0.20316 0.84463,0.29593 0.28071,0.34355 0.51038,0.78455 0.51038,0.98001 0,0.54123 1.82718,-0.71013 1.84089,-1.26075 0.006,-0.24743 0.21956,-0.57124 0.47422,-0.71956 0.41351,-0.24085 0.39936,-0.27055 -0.13229,-0.27773 -0.45647,-0.006 -0.59532,-0.16232 -0.59532,-0.66951 0,-0.47836 0.14216,-0.66146 0.51356,-0.66146 0.28245,0 0.59364,0.1296 0.69153,0.28799 0.10886,0.17614 0.3046,0.0477 0.50398,-0.33073 0.28527,-0.54142 0.24311,-0.70874 -0.33745,-1.33932 -0.47406,-0.51489 -0.67012,-1.03594 -0.6868,-1.82527 -0.0282,-1.33568 0.38833,-1.56441 1.26058,-0.69216 l 0.63751,0.63751 0.69292,-0.86841 c 0.85248,-1.06838 0.91552,-2.09968 0.14075,-2.30229 -0.82722,-0.21632 -0.54975,-1.11036 0.3411,-1.09906 0.97961,0.0124 1.18842,-1.03092 0.2884,-1.44099 -1.02436,-0.46673 -1.91177,-3.1981 -1.03905,-3.1981 0.19866,0 0.65385,0.23021 1.01155,0.51157 l 0.65035,0.51157 0.36497,-0.97459 c 0.20074,-0.53603 0.38671,-1.30718 0.41328,-1.71368 0.0402,-0.61428 -0.0471,-0.72598 -0.51662,-0.66146 -0.44691,0.0614 -0.56493,-0.0606 -0.56493,-0.58383 0,-0.51579 0.1311,-0.65683 0.59531,-0.64045 0.44697,0.0158 0.59531,-0.12713 0.59531,-0.57352 0,-0.42443 -0.28386,-0.73323 -0.99218,-1.07934 -0.95148,-0.46492 -2.19399,-2.28162 -1.81779,-2.65782 0.0872,-0.0872 0.62231,0.0238 1.18925,0.24645 l 1.03079,0.40491 0.13275,-0.98972 c 0.21654,-1.61438 -0.0158,-2.32079 -0.71903,-2.18635 -0.39809,0.0761 -0.65991,-0.0384 -0.77533,-0.3392 -0.20379,-0.5311 0.3076,-1.25906 0.762,-1.08469 0.20596,0.079 0.27147,-0.098 0.19135,-0.51713 -0.0833,-0.43568 -0.30041,-0.63762 -0.6863,-0.63829 -1.28457,-0.002 -3.31945,-1.904 -2.54766,-2.38099 0.17621,-0.10891 0.69452,-0.1476 1.15179,-0.086 0.8267,0.1114 0.83141,0.10523 0.83141,-1.09126 0,-0.78624 -0.11463,-1.20329 -0.33073,-1.20329 -0.1819,0 -0.33256,-0.26789 -0.33478,-0.59532 -0.003,-0.43197 -0.0661,-0.49742 -0.23015,-0.23855 -0.33904,0.535 -1.20897,0.25141 -1.30556,-0.42561 -0.0631,-0.4423 0.048,-0.59261 0.43813,-0.59261 0.45573,0 0.48503,-0.0798 0.22874,-0.62284 -0.25243,-0.5349 -0.44505,-0.60757 -1.36417,-0.51467 -0.76794,0.0776 -1.3186,-0.0476 -1.94954,-0.4434 -1.05673,-0.66288 -0.98128,-1.1003 0.25169,-1.45927 0.89927,-0.26181 0.91217,-0.28547 0.65061,-1.19315 -0.26804,-0.93014 -1.26927,-2.02447 -1.43411,-1.56744 -0.0485,0.13449 -0.37592,0.24452 -0.7276,0.24452 -0.50565,0 -0.63941,-0.13837 -0.63941,-0.66146 0,-0.41157 0.14993,-0.66145 0.39688,-0.66145 0.3281,0 0.31664,-0.082 -0.0661,-0.4729 -0.39858,-0.40707 -0.55509,-0.42571 -1.12448,-0.13392 -0.86074,0.4411 -2.41601,0.43633 -3.02541,-0.009 -0.45388,-0.33189 -0.43994,-0.38357 0.2497,-0.92604 0.40172,-0.316 0.82982,-0.57454 0.95133,-0.57454 0.12151,0 -0.0731,-0.43333 -0.43256,-0.96296 -0.35941,-0.52963 -0.65348,-1.07844 -0.65348,-1.21958 0,-0.26529 1.4015,-0.1546 2.13764,0.16882 0.32006,0.14062 0.49206,-0.0641 0.7349,-0.87462 0.55852,-1.86418 1.77315,-0.4009 1.58675,1.91158 -0.0773,0.95928 0.0102,1.24033 0.50165,1.61091 0.32742,0.24689 0.59531,0.32427 0.59531,0.17195 0,-0.15231 0.24186,-0.27693 0.53747,-0.27693 0.74808,0 0.99082,0.78297 0.38099,1.22888 -0.26974,0.19724 -0.35088,0.35862 -0.18032,0.35862 0.17056,0 0.38482,0.29765 0.47613,0.66145 0.0913,0.36381 0.27758,0.66146 0.41394,0.66146 0.13636,0 0.53154,0.28362 0.87818,0.63026 l 0.63026,0.63026 0.30798,-0.74354 c 0.3903,-0.94227 0.96704,-1.17252 1.31383,-0.52452 0.41734,0.7798 0.31896,1.90584 -0.26106,2.98802 -0.29132,0.54355 -0.41038,0.98827 -0.26458,0.98827 0.1458,0 0.2651,0.17562 0.2651,0.39026 0,0.29252 0.19881,0.3505 0.79375,0.23151 0.72067,-0.14413 0.79375,-0.0948 0.79375,0.53579 0,0.53918 -0.13019,0.69453 -0.58209,0.69453 -0.45273,0 -0.51152,0.0705 -0.26458,0.3175 0.17463,0.17462 0.3175,0.54031 0.3175,0.81265 0,0.27233 0.17597,0.67111 0.39104,0.88618 0.21507,0.21507 0.4987,0.58343 0.63029,0.81857 0.21428,0.38289 0.31531,0.36771 0.96757,-0.14535 1.03229,-0.812 1.1861,-0.72925 1.1861,0.63809 0,0.98069 -0.14447,1.35545 -0.75968,1.97066 -0.56277,0.56277 -0.72593,0.93621 -0.62949,1.44072 0.10621,0.55561 0.19984,0.62324 0.50838,0.36718 0.2957,-0.24542 0.46397,-0.22809 0.7715,0.0794 0.43595,0.43594 0.24737,1.28101 -0.28586,1.28101 -0.47763,0 -0.63274,1.4385 -0.21649,2.00776 0.19088,0.26105 0.34706,0.69675 0.34706,0.96823 0,0.45723 0.0433,0.46326 0.58804,0.0817 0.32342,-0.22654 0.84654,-0.41188 1.16249,-0.41188 0.53927,0 0.55788,0.0653 0.30388,1.06597 -0.27063,1.06621 -1.25267,2.10903 -1.98611,2.10903 -0.24647,0 -0.33052,0.15368 -0.2289,0.41851 0.0883,0.23019 0.1606,0.57414 0.1606,0.76435 0,0.19021 0.20836,0.3293 0.46302,0.30909 0.3273,-0.026 0.46302,0.15714 0.46302,0.62471 0,0.50599 -0.13364,0.6572 -0.56858,0.64333 -0.369,-0.0118 -0.52114,0.1055 -0.43342,0.33409 0.0743,0.19373 0.0215,0.49955 -0.11748,0.6796 -0.16174,0.20958 -0.14859,0.72908 0.0366,1.4439 0.2324,0.89731 0.36711,1.06694 0.68606,0.86395 0.54287,-0.34552 1.5875,-0.32629 1.5875,0.0292 0,0.96577 -1.73828,2.62051 -2.75281,2.62051 -0.63022,0 -0.51874,1.0266 0.17312,1.59416 0.56079,0.46005 0.56923,0.51489 0.14557,0.94573 -0.37219,0.37849 -0.52047,0.39866 -0.8599,0.11696 -0.34629,-0.2874 -0.41015,-0.2612 -0.41015,0.16825 0,0.27976 -0.10402,0.62176 -0.23115,0.76 -0.12714,0.13825 -0.29441,0.75737 -0.37171,1.37584 l -0.14054,1.12447 h 1.16545 c 0.641,0 1.16545,0.10673 1.16545,0.23718 0,0.13045 -0.42086,0.6067 -0.93525,1.05833 -0.67136,0.58947 -1.20093,0.82116 -1.87685,0.82116 -0.71909,0 -0.97431,0.12505 -1.07999,0.52917 -0.0761,0.29104 -0.27332,0.53671 -0.43825,0.54594 -0.16493,0.009 -0.032,0.12445 0.29544,0.25605 0.34774,0.13978 0.59531,0.46636 0.59531,0.78529 0,0.62489 -0.69574,0.99781 -1.10257,0.59098 -0.35392,-0.35392 -1.2024,0.46843 -1.43355,1.38938 -0.0926,0.36888 -0.2742,0.73612 -0.4036,0.8161 -0.42778,0.26438 -0.24441,0.64334 0.31128,0.64334 0.63733,0 1.57011,0.45234 1.57011,0.7614 0,0.51418 -1.78098,1.15305 -2.91335,1.04506 -1.3454,-0.12831 -2.20919,0.43745 -1.75858,1.15182 0.32647,0.51756 0.0496,1.27506 -0.46599,1.27506 -0.21562,0 -0.51339,-0.20836 -0.66172,-0.46303 z m -33.448542,-2.54881 c -0.969227,-1.36729 -1.762231,-2.614 -1.762231,-2.77047 0,-0.15647 0.241736,-0.41387 0.537191,-0.57199 0.458957,-0.24563 0.74795,-0.10744 1.984375,0.94887 0.795951,0.68001 1.447184,1.15406 1.447184,1.05347 0,-0.1006 -0.339084,-0.68061 -0.75352,-1.28892 -0.414436,-0.6083 -1.306545,-2.18233 -1.982464,-3.49783 -0.68769,-1.33842 -1.707635,-2.85329 -2.315833,-3.43959 l -1.086889,-1.04769 0.188591,1.98438 c 0.103725,1.0914 0.101301,1.90051 -0.0054,1.798 -0.106687,-0.1025 -0.588386,-1.5291 -1.070442,-3.17023 -0.646395,-2.2006 -0.794255,-3.03613 -0.563283,-3.18301 0.728751,-0.46342 1.232017,-0.15198 2.041956,1.26364 0.462862,0.809 0.90045,1.41203 0.972417,1.34006 0.07197,-0.072 -0.05309,-0.70411 -0.277913,-1.40476 -0.22482,-0.70065 -0.556189,-2.22641 -0.736378,-3.39058 -0.306991,-1.98341 -2.028436,-6.22716 -2.253855,-5.55625 -0.04889,0.14552 -0.256797,1.03849 -0.462008,1.98438 l -0.37311,1.71979 -0.02657,-2.95492 c -0.01461,-1.62521 -0.102192,-3.152 -0.194623,-3.39287 -0.139044,-0.36235 -0.01608,-0.42317 0.712317,-0.35237 0.850836,0.0827 0.895611,0.14616 1.334559,1.89149 0.511255,2.03283 0.917195,2.71639 0.655914,1.1045 -0.09435,-0.58208 -0.05767,-2.35436 0.08152,-3.9384 0.208204,-2.36949 0.176783,-3.23159 -0.177244,-4.86299 l -0.430311,-1.98292 -0.868174,1.82028 -0.868174,1.82028 0.159276,-1.19062 c 0.0876,-0.65485 0.362489,-2.02407 0.610861,-3.04271 0.431154,-1.76828 0.486622,-1.85208 1.225906,-1.85208 h 0.774319 v 2.05096 c 0,1.12803 0.0893,2.05076 0.198438,2.05052 0.10914,-2.4e-4 0.200311,-0.32786 0.2026,-0.72805 0.0023,-0.40018 0.484876,-2.09682 1.072415,-3.77031 0.998804,-2.8449 1.770434,-6.5016 1.441389,-6.83064 -0.07987,-0.0799 -0.69503,0.47575 -1.367029,1.2347 -0.671999,0.75896 -1.270375,1.33136 -1.329725,1.27201 -0.05935,-0.0593 0.293535,-0.80738 0.78419,-1.6623 0.490654,-0.85492 1.212785,-2.11612 1.604736,-2.80268 0.665687,-1.16604 0.755474,-1.22876 1.362874,-0.95201 0.681819,0.31065 0.694305,0.58923 0.10928,2.43821 -0.493898,1.56098 -0.215364,1.57089 0.749627,0.0267 0.545621,-0.87313 1.826155,-2.7186 2.84563,-4.10104 1.019475,-1.38245 2.196527,-3.01956 2.615671,-3.63802 0.419144,-0.61847 0.801682,-1.12448 0.850084,-1.12448 0.114071,0 -0.188316,0.84801 -0.424554,1.19062 -0.798582,1.15815 -0.225676,0.97869 1.38188,-0.43288 l 1.917572,-1.68379 -1.34086,1.7198 c -1.891765,2.42638 -1.959507,2.59016 -0.78462,1.89696 0.555162,-0.32755 1.04378,-0.56095 1.08582,-0.51865 0.042,0.0423 -0.903368,0.91033 -2.100914,1.92898 -1.197545,1.01864 -2.655127,2.44739 -3.239071,3.175 -1.071399,1.33498 -2.740641,3.95104 -2.740641,4.29517 0,0.1024 0.714586,-0.52095 1.587969,-1.38522 l 1.587969,-1.5714 0.543673,0.54367 0.543672,0.54368 -1.347798,2.19605 c -2.340301,3.8132 -2.702671,4.07327 -1.478812,1.06133 0.353607,-0.87023 0.57239,-1.58224 0.486184,-1.58224 -0.08621,0 -0.724598,0.3644 -1.41865,0.80977 -1.083328,0.69517 -1.372647,1.07896 -2.044386,2.71198 -1.737745,4.22449 -2.236401,7.35829 -0.692118,4.3496 0.904775,-1.76274 1.211168,-2.0055 1.944964,-1.54101 0.320405,0.20282 0.309739,0.53466 -0.07428,2.31105 -0.246622,1.14083 -0.615373,2.61002 -0.819446,3.26486 l -0.371042,1.19063 -0.0177,-2.05129 -0.0177,-2.05128 -0.952932,1.05478 c -1.214461,1.34427 -1.421342,2.2894 -1.391062,6.35508 l 0.02463,3.30729 0.527939,-2.18281 c 0.509896,-2.10821 0.554053,-2.18282 1.291973,-2.18282 h 0.764033 l -0.03143,3.37344 c -0.03061,3.28552 -0.04029,3.33896 -0.371475,2.05052 -0.187025,-0.7276 -0.351475,-1.5908 -0.365444,-1.91823 -0.04051,-0.94939 -0.393686,-0.69929 -1.120895,0.79375 l -0.676564,1.38907 0.448775,2.6518 c 0.835947,4.93959 1.587868,6.40267 1.587868,3.08965 0,-2.1218 0.01417,-2.16958 0.643628,-2.16958 0.384352,0 0.69887,0.18652 0.780758,0.46302 0.672413,2.27043 1.483547,5.395 1.473017,5.67421 -0.0072,0.18979 -0.440223,-0.48778 -0.962368,-1.5057 -1.030244,-2.00844 -1.137689,-1.98729 -1.522661,0.29978 -0.158371,0.94086 -0.04713,1.36879 0.790918,3.0427 1.189435,2.37576 2.804182,5.04005 2.960117,4.88411 0.06297,-0.063 -0.156222,-0.95503 -0.487093,-1.98235 -0.330872,-1.02732 -0.549259,-1.91532 -0.485305,-1.97332 0.06395,-0.058 0.377547,-0.1857 0.696872,-0.28378 0.638483,-0.1961 0.50007,-0.36517 2.556365,3.12265 0.675768,1.14622 1.224707,2.21778 1.219866,2.38125 -0.0087,0.29502 -0.121461,0.17925 -1.777135,-1.82508 l -0.859896,-1.04097 v 1.38244 c 0,1.20829 0.116649,1.51155 0.926042,2.40745 0.998289,1.10499 1.172167,1.80909 0.509549,2.06336 -0.267534,0.10266 -0.811644,-0.21948 -1.521354,-0.90072 -1.062501,-1.01988 -3.538439,-2.61996 -3.739582,-2.41671 -0.0535,0.0541 0.197078,0.79566 0.556843,1.64801 0.359766,0.85235 0.606609,1.59724 0.548541,1.65531 -0.05807,0.0581 -0.898581,-1.01312 -1.867808,-2.38041 z m 17.142672,2.13011 c -3.42664,-0.8758 -7.22619,-3.36441 -9.252735,-6.06031 C 94.227053,95.66361 92.363951,89.31612 92.732406,81.49566 93.461221,66.02654 103.90899,55.543 115.07972,59.07183 c 5.93298,1.87423 10.72293,7.79314 12.9421,15.99249 0.57258,2.11554 0.70556,3.27638 0.80973,7.06836 0.1365,4.96882 -0.13597,7.07948 -1.42946,11.0733 -2.21504,6.83927 -6.97513,12.25664 -12.22341,13.91126 -2.17764,0.68654 -5.53419,0.87916 -7.32852,0.42056 z m 7.1462,-1.72311 c 3.86435,-1.39498 7.43554,-4.86734 9.77025,-9.49985 l 0.70006,-1.38907 h -2.65029 c -1.45766,0 -2.65029,-0.0377 -2.65029,-0.0837 0,-0.046 -0.12971,-0.78539 -0.28825,-1.64301 -0.59049,-3.19427 -2.6073,-5.83045 -5.37863,-7.03043 l -1.46784,-0.63557 -0.004,-1.29168 c -0.004,-1.13942 0.10608,-1.39598 0.93373,-2.17655 0.65122,-0.61418 1.59014,-1.08508 3.06924,-1.53931 1.7654,-0.54216 2.37609,-0.88623 3.55948,-2.00543 1.581,-1.49524 3.52952,-2.49507 4.50072,-2.30941 0.73341,0.1402 0.81195,-0.2253 0.22766,-1.05949 -0.3527,-0.50355 -0.59901,-0.56483 -1.91823,-0.47726 -0.83246,0.0553 -2.16841,0.32946 -2.96878,0.60933 -2.5215,0.88171 -3.11926,0.9246 -3.55239,0.25485 -0.20929,-0.32361 -0.45883,-0.90705 -0.55453,-1.29652 -0.0957,-0.38947 -0.40598,-0.91807 -0.68951,-1.17465 -0.44173,-0.39977 -0.69388,-0.42718 -1.76214,-0.19157 -1.20528,0.26584 -7.61629,1.99928 -11.19704,3.02752 -2.908555,0.83521 -2.885024,0.94106 -0.71907,-3.23457 2.09647,-4.04169 2.74285,-4.76147 3.77826,-4.20734 0.52335,0.28009 0.72531,0.26475 1.2375,-0.094 0.76954,-0.53901 1.39089,-0.54557 1.82765,-0.0193 0.18687,0.22517 0.40981,0.30132 0.49542,0.16921 0.0856,-0.1321 0.52077,-0.42716 0.96703,-0.65569 0.74596,-0.382 0.84745,-0.60368 1.25853,-2.7489 0.24593,-1.28337 0.44635,-2.66673 0.44538,-3.07414 -9.7e-4,-0.4074 0.17617,-1.08482 0.39364,-1.50536 l 0.39541,-0.76462 -1.12301,-0.16702 c -1.43676,-0.21368 -4.46309,0.41388 -6.38858,1.32478 -4.29643,2.03254 -7.894815,6.66276 -9.953582,12.80777 -1.132874,3.3814 -1.06705,3.65725 1.063949,4.45884 1.61971,0.60926 1.763381,0.62226 2.468837,0.2234 0.411975,-0.23292 1.12635,-0.41276 1.587496,-0.39964 l 0.83846,0.0239 -0.8599,0.24828 c -1.433431,0.41389 -0.97226,0.58182 1.19063,0.43356 2.03755,-0.13967 2.04466,-0.13792 1.12448,0.27814 -0.86239,0.38993 -0.88279,0.42582 -0.29675,0.52211 0.3461,0.0569 1.16426,-0.0313 1.81812,-0.19596 1.43448,-0.36121 1.75212,-0.20353 0.54265,0.26938 l -0.8734,0.3415 0.74307,0.10503 c 0.40869,0.0578 1.47116,-0.14085 2.36104,-0.44137 0.88988,-0.30051 1.6658,-0.49856 1.72427,-0.4401 0.0585,0.0585 -0.17057,0.18931 -0.50896,0.29076 -0.33839,0.10145 -1.50822,0.63229 -2.59963,1.17963 -1.0914,0.54735 -2.75152,1.27347 -3.68915,1.61359 l -1.70479,0.61842 1.42542,0.62471 c 0.9587,0.42017 2.00187,0.64069 3.18593,0.67351 1.67652,0.0465 1.79413,0.009 2.46521,-0.78676 0.38759,-0.45956 1.11352,-1.07676 1.61318,-1.37157 l 0.90848,-0.53602 -0.51383,0.84241 c -0.39813,0.65271 -0.4776,1.11751 -0.3529,2.0642 l 0.16093,1.2218 -0.93853,0.17607 c -1.39908,0.26247 -3.89462,2.066 -4.86687,3.51729 -0.69181,1.03269 -1.60202,3.04795 -1.65139,3.6563 -0.006,0.0707 -0.0104,0.54533 -0.0104,1.05465 v 0.92604 h -2.645832 c -1.963493,0 -2.645833,0.0867 -2.645833,0.33627 0,0.74825 2.508787,4.55151 4.149965,6.29125 2.40449,2.54889 4.40537,3.83702 7.22712,4.6527 1.72683,0.49917 5.33763,0.3047 7.26569,-0.3913 z m -5.4136,-3.23161 c 0,-0.15411 0.11906,-0.20662 0.26458,-0.11668 0.36307,0.22439 0.33447,-0.22116 -0.0381,-0.59374 -0.22721,-0.2272 -0.16889,-0.2677 0.23385,-0.16239 0.37277,0.0975 0.49612,0.29487 0.40413,0.64666 -0.13779,0.52688 -0.86445,0.71698 -0.86445,0.22615 z m 1.5875,-0.27728 c 0,-0.37568 0.12385,-0.50995 0.37978,-0.41174 0.20888,0.0802 0.4376,0.004 0.50828,-0.17013 0.0707,-0.17372 0.13789,0.0116 0.14938,0.41174 0.016,0.55818 -0.10233,0.72761 -0.50828,0.72761 -0.36173,0 -0.52916,-0.17639 -0.52916,-0.55748 z m -3.175,0.056 c 0,-0.15162 0.17859,-0.20714 0.39687,-0.12338 0.5519,0.21178 0.49899,-0.34379 -0.0661,-0.69467 -0.42321,-0.26276 -0.41752,-0.28064 0.0661,-0.20796 0.66196,0.0995 0.71585,1.0874 0.0661,1.21252 -0.25466,0.049 -0.46302,-0.0349 -0.46302,-0.18651 z m -1.40576,-0.49072 c -0.0627,-0.10914 0.12425,-0.43656 0.41553,-0.72761 l 0.52961,-0.52916 -0.28955,0.56052 c -0.15925,0.30829 -0.21436,0.63571 -0.12247,0.72761 0.0919,0.0919 0.0352,0.16708 -0.12598,0.16708 -0.16119,0 -0.3444,-0.0893 -0.40714,-0.19844 z m 8.46687,-0.42903 c -0.11094,-0.2891 -0.0272,-0.36495 0.29455,-0.26683 0.24725,0.0754 0.16768,-0.0316 -0.17681,-0.23783 -0.50576,-0.30274 -0.54769,-0.40512 -0.21778,-0.53172 0.22471,-0.0862 0.55588,0.0207 0.73592,0.23764 0.26318,0.31712 0.24814,0.47364 -0.0768,0.79854 -0.36231,0.36231 -0.42015,0.36233 -0.55911,2e-4 z m -9.72217,-0.45496 c -0.32531,-0.21356 -0.3139,-0.30249 0.0773,-0.60241 0.2524,-0.19352 0.37509,-0.43568 0.27264,-0.53812 -0.10244,-0.10245 0.0185,-0.1077 0.2687,-0.0117 0.53687,0.20602 0.55336,0.36328 0.10058,0.9588 -0.23614,0.31059 -0.45219,0.36869 -0.71919,0.19341 z m 2.49504,-0.87734 c -0.74615,-0.34743 -1.44443,-0.77373 -1.55173,-0.94734 -0.23188,-0.37519 1.34918,-2.08503 2.97101,-3.21302 1.70676,-1.18705 4.67394,-2.35098 6.43118,-2.52273 l 1.57597,-0.15404 -0.003,1.28959 c -0.005,2.4176 -1.65653,4.89103 -3.89152,5.82761 -1.38473,0.58027 -3.96514,0.44964 -5.53232,-0.28007 z m 8.15923,-0.0347 c -0.28251,-0.32032 -0.26846,-0.38682 0.0818,-0.38682 0.23261,0 0.34934,-0.11906 0.2594,-0.26458 -0.25483,-0.41233 0.29377,-0.31074 0.65184,0.1207 0.63593,0.76625 -0.32996,1.28245 -0.993,0.5307 z m 1.22012,-1.27035 c -0.27019,-0.20543 -0.36174,-0.47058 -0.23389,-0.67744 0.28153,-0.45554 1.34687,0.17507 1.15231,0.68209 -0.16511,0.43028 -0.34758,0.42936 -0.91842,-0.005 z m 0.63197,-1.37549 c -0.22078,-0.25031 -0.23861,-0.38681 -0.0505,-0.38681 0.15984,0 0.21704,-0.11906 0.1271,-0.26458 -0.18397,-0.29767 0.14803,-0.34347 0.76727,-0.10585 0.31692,0.12162 0.35074,0.27632 0.14462,0.66146 -0.31902,0.5961 -0.52922,0.61647 -0.98846,0.0958 z M 104.56768,95.6602 c -0.2963,-1.38158 -0.0456,-3.09457 0.64969,-4.43909 0.56704,-1.09654 2.46754,-2.61246 3.68988,-2.94321 2.32387,-0.62881 5.96123,0.39108 6.76747,1.89756 0.32294,0.60342 0.39099,0.57053 -2.12321,1.02626 -2.60657,0.47248 -4.35374,1.44859 -6.65952,3.72054 l -2.04949,2.01942 z m 6.61683,-4.68881 c 0.59065,0.37369 0.7426,0.29852 0.58841,-0.29109 -0.0901,-0.34456 0.0391,-0.67804 0.3555,-0.91763 0.47038,-0.35617 0.45967,-0.37681 -0.1997,-0.38477 -0.48941,-0.006 -0.74964,-0.18556 -0.8745,-0.60373 l -0.17775,-0.59531 -0.29041,0.59531 c -0.15973,0.32742 -0.52493,0.59531 -0.81155,0.59531 -0.45474,0 -0.47487,0.0557 -0.15802,0.43753 0.19971,0.24063 0.32434,0.66636 0.27696,0.94606 -0.0717,0.42314 -0.003,0.46385 0.41114,0.2424 0.30622,-0.16388 0.64432,-0.17313 0.87992,-0.0241 z m -4.77454,5.81339 c -0.29832,-0.1886 -0.3201,-0.32408 -0.0892,-0.55497 0.3622,-0.3622 0.88074,-0.10825 0.88074,0.43133 0,0.44019 -0.23323,0.47662 -0.79154,0.12364 z m 1.23251,-0.71252 c -0.097,-0.097 -0.17639,-0.39886 -0.17639,-0.67076 0,-0.4184 0.0844,-0.44921 0.5492,-0.20046 0.50327,0.26934 0.52444,0.24767 0.25317,-0.2592 -0.23173,-0.43299 -0.21592,-0.58386 0.0728,-0.69465 0.20284,-0.0778 0.47587,-0.1215 0.60672,-0.097 0.52381,0.0979 0.89937,-0.0336 0.89937,-0.31516 0,-0.20518 -0.12267,-0.19517 -0.39687,0.0324 -0.22876,0.18985 -0.39688,0.21557 -0.39688,0.0607 0,-0.49101 0.77521,-0.57499 1.06954,-0.11587 0.25054,0.39081 0.27275,0.37135 0.16397,-0.14364 -0.0692,-0.32762 -0.0179,-0.52896 0.11408,-0.44741 0.13195,0.0815 0.23991,0.0222 0.23991,-0.13192 0,-0.15411 0.20984,-0.0718 0.46631,0.18282 0.44489,0.44176 0.42084,0.48357 -0.52374,0.91067 -0.54452,0.24621 -1.25619,0.69562 -1.58149,0.99868 -0.3253,0.30306 -0.7384,0.49464 -0.918,0.42572 -0.19935,-0.0765 -0.26924,0.024 -0.17942,0.25809 0.15545,0.4051 0.0327,0.50198 -0.26227,0.20701 z m 10.32968,-0.61505 c 0.17198,-0.65767 0.92236,-0.61076 1.02104,0.0638 0.0373,0.25466 -0.0408,0.46302 -0.17344,0.46302 -0.13264,0 -0.24117,-0.13364 -0.24117,-0.29698 0,-0.21249 -0.10698,-0.20819 -0.37606,0.0151 -0.30918,0.2566 -0.35015,0.21302 -0.23037,-0.245 z m -15.53315,-0.26689 c 0,-0.37483 0.17639,-0.52917 0.60476,-0.52917 0.42837,0 0.60476,0.15434 0.60476,0.52917 0,0.37482 -0.17639,0.52916 -0.60476,0.52916 -0.42837,0 -0.60476,-0.15434 -0.60476,-0.52916 z M 118.04942,93.849 c 0,-0.41156 0.14272,-0.52657 0.57459,-0.46302 0.31603,0.0465 0.60475,0.23635 0.64162,0.42189 0.0369,0.18554 0.007,0.2153 -0.0675,0.0661 -0.17725,-0.35741 -0.88415,-0.35022 -0.88415,0.009 0,0.15411 0.11906,0.20661 0.26458,0.11667 0.14552,-0.0899 0.26458,-0.0374 0.26458,0.11668 0,0.15411 -0.17859,0.2802 -0.39687,0.2802 -0.22493,0 -0.39688,-0.23723 -0.39688,-0.54757 z M 102.7837,93.65793 c -0.1843,-0.11717 -0.22736,-0.34602 -0.10296,-0.5473 0.16457,-0.26629 0.256,-0.23593 0.39714,0.13186 0.15587,0.40619 0.22026,0.41942 0.42964,0.0883 0.20669,-0.32683 0.24695,-0.31499 0.25035,0.0736 0.004,0.48367 -0.43312,0.5975 -0.97417,0.25355 z m 9.33906,-0.74303 c -0.0942,-0.24538 -0.11168,-0.50569 -0.0389,-0.57845 0.0728,-0.0728 0.20933,0.0685 0.3035,0.31387 0.0942,0.24538 0.11167,0.50568 0.0389,0.57844 -0.0728,0.0728 -0.20934,-0.0685 -0.3035,-0.31386 z m 0.68274,-0.17198 c 0.0465,-0.32742 0.20361,-0.59531 0.34913,-0.59531 0.14552,0 0.30263,0.26789 0.34913,0.59531 0.0582,0.40962 -0.0507,0.59531 -0.34913,0.59531 -0.2984,0 -0.4073,-0.18569 -0.34913,-0.59531 z m 1.15764,-0.12309 c -0.24589,-0.64077 0.15728,-1.00537 0.53719,-0.48581 0.18832,0.25755 0.47681,0.37821 0.64932,0.27159 0.23025,-0.14229 0.21771,-0.25061 -0.0485,-0.41931 -0.27513,-0.17433 -0.24421,-0.22841 0.13235,-0.23151 0.34004,-0.003 0.44188,0.12482 0.33073,0.41446 -0.0883,0.23018 -0.1606,0.51296 -0.1606,0.62838 0,0.37844 -1.28801,0.21945 -1.44045,-0.1778 z m -10.61367,-0.72839 c -0.4937,-0.37342 -0.4944,-0.38879 -0.0182,-0.39687 0.39623,-0.007 0.43339,-0.0832 0.18559,-0.38174 -0.42065,-0.50686 0.0522,-0.75208 0.63228,-0.3279 0.42666,0.31198 0.43009,0.37526 0.0413,0.76401 -0.31569,0.31569 -0.34006,0.45771 -0.0955,0.55652 0.1806,0.073 0.20229,0.14206 0.0482,0.15355 -0.15409,0.0115 -0.51128,-0.15392 -0.79375,-0.36757 z m 1.13922,-1.92063 c -0.41297,-0.45632 -0.40882,-0.50736 0.0653,-0.80347 0.60993,-0.3809 0.87379,-0.0558 0.58605,0.72201 -0.20355,0.55025 -0.22473,0.5529 -0.65137,0.0815 z m 11.33068,-0.75252 c -0.35803,-0.35802 -0.37452,-0.50585 -0.0942,-0.84408 0.30441,-0.36728 0.34917,-0.36233 0.42915,0.0475 0.0525,0.26879 0.24344,0.39835 0.46302,0.31409 0.48069,-0.18446 0.48387,0.21294 0.005,0.61046 -0.28508,0.23659 -0.46742,0.20754 -0.80289,-0.12793 z m -9.74799,-0.41289 c -0.25156,-0.14078 -0.45737,-0.38368 -0.45737,-0.53979 0,-0.17982 0.14779,-0.16118 0.40327,0.0508 0.55082,0.45714 0.81692,0.11762 0.36204,-0.46194 -0.33502,-0.42684 -0.32644,-0.43648 0.0946,-0.10628 0.82618,0.64793 0.4819,1.55211 -0.40253,1.05716 z m 7.92589,-0.73451 c -0.4531,-0.16571 -0.44927,-0.20372 0.0678,-0.67163 0.63485,-0.57453 1.00179,-0.3789 0.65251,0.34788 -0.16327,0.33975 -0.39354,0.44324 -0.72028,0.32375 z m -6.44232,-0.43898 c -0.0875,-0.22806 -0.0162,-0.55549 0.1584,-0.72761 0.24497,-0.24142 0.40222,-0.19822 0.68812,0.18906 0.20382,0.2761 0.30784,0.60352 0.23116,0.7276 -0.23061,0.37313 -0.90752,0.25438 -1.07768,-0.18905 z m 1.79926,-0.84211 c 0.0297,-0.59899 0.0559,-0.62525 0.14856,-0.14856 0.0619,0.31847 0.31357,0.63208 0.55928,0.69691 0.31653,0.0835 0.27323,0.12681 -0.14856,0.14856 -0.48844,0.0252 -0.58885,-0.0999 -0.55928,-0.69691 z m 1.57006,0.13229 c -0.0102,-0.40018 0.10047,-0.72761 0.24599,-0.72761 0.31054,0 0.31054,0.20337 0,0.92605 -0.2015,0.4689 -0.22951,0.44631 -0.24599,-0.19844 z m 1.25641,0.46089 c -0.33688,-0.34003 0.10219,-0.92404 0.67153,-0.89322 0.42222,0.0229 0.45292,0.0608 0.12025,0.14856 -0.24571,0.0648 -0.48384,0.29982 -0.52916,0.52221 -0.0453,0.22239 -0.16351,0.32249 -0.26262,0.22245 z m -1.80417,-2.73651 c 0,-0.89233 0.49479,-2.42074 0.78367,-2.42074 0.18044,0 0.53924,1.87309 0.53924,2.81506 0,0.20755 -0.28004,0.35994 -0.66145,0.35994 -0.55087,0 -0.66146,-0.1261 -0.66146,-0.75426 z m 11.34951,-3.58641 c 0.76756,-0.69463 0.73318,-1.69038 -0.0653,-1.89078 -0.42192,-0.10589 -0.9418,0.0609 -1.61605,0.51845 -0.54672,0.37101 -1.69556,0.87141 -2.55298,1.11198 -0.85742,0.24058 -1.55894,0.54045 -1.55894,0.66636 0,0.12592 1.17822,0.19944 2.61827,0.16339 2.14283,-0.0537 2.71935,-0.15705 3.175,-0.5694 z m -1.16757,-11.66865 2.28662,-2.78015 -0.54956,-0.77178 c -1.02977,-1.44618 -3.97151,-3.9091 -5.66465,-4.74263 -2.01564,-0.9923 -2.33563,-1.02707 -2.17405,-0.23622 0.0669,0.32742 0.19214,2.26219 0.27832,4.29948 0.0862,2.03729 0.22875,4.44831 0.31682,5.35781 l 0.16013,1.65365 h 1.52988 1.52988 z M 109.19279,56.1077 c 0.21133,-0.69649 0.38553,-1.35019 0.3871,-1.45266 0.002,-0.10247 -0.55003,-0.60849 -1.2258,-1.12448 l -1.22868,-0.93816 h 1.6035 1.6035 l 0.49423,-1.4827 0.49423,-1.48269 0.46738,1.48269 0.46738,1.4827 h 1.61203 1.61203 l -1.22868,0.93816 c -1.35979,1.03828 -1.39769,1.16209 -0.83976,2.74343 0.42319,1.19943 0.37439,1.20458 -1.09886,0.11583 -1.03389,-0.76405 -1.03563,-0.76406 -2.0432,-0.008 -1.46951,1.10216 -1.49214,1.09641 -1.0764,-0.27376 z"
       id="path1" /></g></svg>
