<?xml version="1.0" encoding="UTF-8" standalone="no"?>
<svg
   width="24"
   height="24"
   viewBox="0 0 24 24"
   version="1.1"
   id="svg1"
   sodipodi:docname="AAA_000.svg"
   inkscape:version="1.4.3 (0d15f75042, 2025-12-25)"
   xmlns:inkscape="http://www.inkscape.org/namespaces/inkscape"
   xmlns:sodipodi="http://sodipodi.sourceforge.net/DTD/sodipodi-0.dtd"
   xmlns="http://www.w3.org/2000/svg"
   xmlns:svg="http://www.w3.org/2000/svg">
  <defs
     id="defs1" />
  <sodipodi:namedview
     id="namedview1"
     pagecolor="#ffffff"
     bordercolor="#000000"
     borderopacity="0.25"
     inkscape:showpageshadow="2"
     inkscape:pageopacity="0.0"
     inkscape:pagecheckerboard="0"
     inkscape:deskcolor="#d1d1d1"
     inkscape:zoom="8.21875"
     inkscape:cx="21.171103"
     inkscape:cy="22.08365"
     inkscape:window-width="1920"
     inkscape:window-height="998"
     inkscape:window-x="1680"
     inkscape:window-y="0"
     inkscape:window-maximized="1"
     inkscape:current-layer="svg1" />
  <g
     id="Page-1"
     stroke="none"
     stroke-width="1"
     fill="none"
     fill-rule="evenodd"
     transform="matrix(0.03780413,0,0,0.03780413,1.9188987,2.3202838)"
     style="fill:#ffffff">
    <g
       id="Combined-Shape"
       fill="#000000"
       transform="translate(64,34.346667)"
       style="fill:#ffffff">
      <path
         id="path1-5"
         style="fill:#000000"
         d="M 192,-1.4594763e-5 384.00001,110.85124 v 132.13475 h -42.667 v -85.331 l -128.00001,73.9 v 199.533 L 192,443.405 7.849288e-7,332.55375 V 110.85124 Z M 341.33334,264.31999 l -3.3e-4,64 h 64.00033 v 42.66667 l -64.00033,-6.7e-4 3.3e-4,64.00067 h -42.66666 l -6.7e-4,-64.00067 -63.99934,6.7e-4 v -42.66667 h 63.99934 l 6.7e-4,-64 z m -298.667337,-106.666 6.7e-4,150.26614 127.999327,73.89986 v -150.265 z M 192,49.267205 66.133343,121.93637 192,194.60552 317.86668,121.93637 Z M 520.0923,-95.723145 V 539.12816 H -114.75897 V -95.723145 Z" />
    </g>
  </g>
</svg>
