<?xml version="1.0" encoding="UTF-8" standalone="no"?>
<!-- Created with Inkscape (http://www.inkscape.org/) -->

<svg
   width="125.57408mm"
   height="125.56625mm"
   viewBox="0 0 125.57408 125.56625"
   version="1.1"
   id="svg1"
   xml:space="preserve"
   inkscape:version="1.3.2 (091e20e, 2023-11-25, custom)"
   sodipodi:docname="python.svg"
   xmlns:inkscape="http://www.inkscape.org/namespaces/inkscape"
   xmlns:sodipodi="http://sodipodi.sourceforge.net/DTD/sodipodi-0.dtd"
   xmlns="http://www.w3.org/2000/svg"
   xmlns:svg="http://www.w3.org/2000/svg"><sodipodi:namedview
     id="namedview1"
     pagecolor="#505050"
     bordercolor="#eeeeee"
     borderopacity="1"
     inkscape:showpageshadow="0"
     inkscape:pageopacity="0"
     inkscape:pagecheckerboard="0"
     inkscape:deskcolor="#d1d1d1"
     inkscape:document-units="mm"
     inkscape:zoom="0.59155655"
     inkscape:cx="207.92602"
     inkscape:cy="205.39034"
     inkscape:window-width="1366"
     inkscape:window-height="705"
     inkscape:window-x="-8"
     inkscape:window-y="695"
     inkscape:window-maximized="1"
     inkscape:current-layer="layer1" /><defs
     id="defs1" /><g
     inkscape:label="Camada 1"
     inkscape:groupmode="layer"
     id="layer1"
     transform="translate(-50.52859,-86.216095)"><path
       style="fill:#000000"
       d="m 108.40254,211.718 c -0.36381,-0.0573 -2.20927,-0.29608 -4.10104,-0.53073 -8.758922,-1.08642 -13.637565,-3.94439 -16.43193,-9.62603 -1.496349,-3.04245 -1.48948,-2.96257 -1.570075,-18.25625 -0.04103,-7.78536 0.01999,-15.56559 0.135602,-17.28938 0.196673,-2.93254 0.279794,-3.27464 1.291957,-5.31727 1.499638,-3.02639 4.083274,-5.48278 7.501364,-7.13189 1.35217,-0.65238 3.11334,-1.327 3.9137,-1.49916 0.960182,-0.20653 6.585482,-0.37401 16.536462,-0.49231 14.521,-0.17264 15.13754,-0.2003 16.59655,-0.74477 5.20998,-1.94422 9.80746,-6.30681 12.09232,-11.47451 1.23577,-2.79496 1.41205,-4.55653 1.39779,-13.96773 -0.007,-4.86024 0.093,-9.11673 0.22311,-9.45885 l 0.2365,-0.62204 6.81957,0.009 c 9.37891,0.0128 11.30097,0.50125 14.78066,3.75633 3.96294,3.70714 6.36835,9.85049 7.79748,19.91459 0.75493,5.31636 0.61637,11.23936 -0.39307,16.80104 -1.42698,7.86224 -2.65611,10.72523 -6.09049,14.18645 -2.28291,2.30075 -4.21402,3.46402 -7.68751,4.63083 l -1.85208,0.62215 -24.80469,0.0813 -24.80469,0.0813 v 3.0313 3.03131 h 14.67507 14.67507 l 0.30366,0.5674 c 0.3836,0.71676 0.159,16.1269 -0.26359,18.08573 -0.43246,2.00454 -1.80928,4.49768 -3.20458,5.80282 -2.62462,2.45502 -7.57805,4.14788 -15.07313,5.15131 -3.63683,0.48689 -11.27287,0.88242 -12.69999,0.65783 z m 12.34111,-0.90666 c 11.99234,-1.55304 17.09315,-4.60252 18.3491,-10.96989 0.3536,-1.79264 0.5917,-14.30735 0.31462,-16.53646 l -0.18088,-1.4552 -14.68437,-0.1323 -14.68438,-0.13229 v -3.175 -3.175 l 24.73854,-0.1455 c 27.6962,-0.16289 25.70505,-0.0208 30.14209,-2.15118 4.5125,-2.16662 7.69991,-6.42915 9.16429,-12.2554 2.42457,-9.64651 2.53698,-17.77513 0.38063,-27.52437 -1.94178,-8.77916 -4.92498,-13.66705 -9.87104,-16.17341 -2.30473,-1.16789 -4.23133,-1.40409 -11.49357,-1.40909 l -6.68073,-0.005 -0.0444,0.7276 c -0.0244,0.40019 -0.0616,4.7162 -0.0827,9.59115 -0.036,8.30348 -0.0757,8.99607 -0.62914,10.96089 -1.64901,5.85442 -5.65297,10.67047 -11.01773,13.25239 -1.30969,0.63032 -3.09562,1.29175 -3.96875,1.46985 -1.1144,0.2273 -5.76651,0.33799 -15.61041,0.37143 -15.579682,0.0529 -15.819782,0.0756 -19.512052,1.84414 -3.701922,1.77316 -6.630818,4.75044 -7.894749,8.02516 -0.834686,2.1626 -0.975294,5.5558 -0.896021,21.62302 0.07455,15.10985 0.07856,15.15233 1.74171,18.44701 0.950191,1.88232 3.425456,4.58376 5.30526,5.79003 5.18611,3.32791 15.989292,4.57778 27.114672,3.13701 z m 4.88863,-13.14225 c -1.92971,-0.95063 -3.03432,-3.59032 -2.43453,-5.81778 0.40986,-1.5221 2.23475,-3.15736 3.78251,-3.38946 3.19211,-0.47869 5.76394,1.63596 5.76394,4.7393 0,2.94688 -1.99698,4.92856 -4.95244,4.91449 -0.6959,-0.003 -1.66767,-0.20426 -2.15948,-0.44655 z m 4.59299,-0.41707 c 2.05385,-1.16324 2.89391,-4.15137 1.76501,-6.27824 -0.67798,-1.27733 -2.44667,-2.22555 -4.15164,-2.22576 -3.93791,-4.9e-4 -5.94166,4.48696 -3.36883,7.5446 1.37787,1.63749 3.835,2.04709 5.75546,0.9594 z M 65.275451,181.15246 c -4.802033,-0.7873 -8.831413,-4.55723 -11.260626,-10.53556 -1.500669,-3.69317 -3.099381,-11.71627 -3.429293,-17.20982 -0.276086,-4.59728 0.460345,-10.80906 2.023198,-17.06563 1.704045,-6.8218 5.942869,-11.22268 12.674414,-13.15899 1.940753,-0.55825 2.423937,-0.57126 26.582934,-0.71625 l 24.606252,-0.14767 v -3.43959 -3.43958 l -14.76951,-0.0684 -14.769502,-0.0684 0.101027,-8.79517 c 0.08582,-7.470819 0.171045,-9.014282 0.56602,-10.250371 1.048298,-3.280689 3.475228,-5.652602 7.277413,-7.112438 6.265282,-2.405532 18.360612,-3.588042 26.099392,-2.551629 7.25259,0.971299 10.8561,2.383118 13.8837,5.439492 1.03521,1.045048 2.06019,2.415723 2.57495,3.443377 1.66674,3.327505 1.65838,3.22134 1.65838,21.049539 0,15.40083 -0.0255,16.27115 -0.52526,17.88902 -1.35204,4.3774 -5.28587,8.09014 -10.40885,9.82387 -1.55846,0.52741 -2.33334,0.55984 -16.84714,0.70515 -15.003792,0.1502 -15.239072,0.16077 -17.065622,0.76646 -5.125092,1.69948 -8.901863,4.76059 -11.837312,9.59424 -2.49089,4.10162 -2.826082,6.15108 -2.837834,17.35135 l -0.0092,8.7974 -6.416146,-0.0309 c -3.52888,-0.017 -7.070989,-0.13829 -7.871354,-0.26952 z m 34.863749,-72.3403 c 3.85494,-1.6107 4.39586,-6.92683 0.92854,-9.125733 -2.337482,-1.482389 -4.699642,-1.254125 -6.590642,0.636883 -4.032529,4.03253 0.40497,10.68541 5.662102,8.48885 z"
       id="path1" /></g></svg>
