<?xml version="1.0" encoding="UTF-8" standalone="no"?>
<!-- Created with Inkscape (http://www.inkscape.org/) -->

<svg
   width="91.464119mm"
   height="73.50042mm"
   viewBox="0 0 91.464119 73.50042"
   version="1.1"
   id="svg1"
   xml:space="preserve"
   inkscape:version="1.3.2 (091e20e, 2023-11-25, custom)"
   sodipodi:docname="uop.svg"
   xmlns:inkscape="http://www.inkscape.org/namespaces/inkscape"
   xmlns:sodipodi="http://sodipodi.sourceforge.net/DTD/sodipodi-0.dtd"
   xmlns="http://www.w3.org/2000/svg"
   xmlns:svg="http://www.w3.org/2000/svg"><sodipodi:namedview
     id="namedview1"
     pagecolor="#505050"
     bordercolor="#eeeeee"
     borderopacity="1"
     inkscape:showpageshadow="0"
     inkscape:pageopacity="0"
     inkscape:pagecheckerboard="0"
     inkscape:deskcolor="#d1d1d1"
     inkscape:document-units="mm"
     inkscape:zoom="0.41829365"
     inkscape:cx="172.12788"
     inkscape:cy="137.46324"
     inkscape:window-width="1366"
     inkscape:window-height="705"
     inkscape:window-x="-8"
     inkscape:window-y="695"
     inkscape:window-maximized="1"
     inkscape:current-layer="layer1" /><defs
     id="defs1" /><g
     inkscape:label="Camada 1"
     inkscape:groupmode="layer"
     id="layer1"
     transform="translate(-59.267939,-111.74979)"><path
       style="fill:#000000"
       d="M 103.01189,183.45397 C 93.45087,177.57246 87.810933,172.88398 83.283951,167.05413 l -0.676903,-0.87172 -3.026744,0.65738 c -1.664708,0.36157 -4.984897,1.14139 -7.378197,1.73295 -2.393299,0.59156 -4.553335,1.01149 -4.800079,0.93317 -0.656514,-0.20837 -0.762724,-0.9085 -0.76673,-5.05429 l -0.0036,-3.7388 -2.944229,1.96718 c -3.436261,2.29592 -4.27734,2.45778 -4.411847,0.84903 -0.04402,-0.52647 0.105672,-1.75797 0.332645,-2.73665 0.61865,-2.66757 1.004251,-7.87239 0.80558,-10.87369 -0.198417,-2.99748 -0.1498,-3.10194 1.587642,-3.41118 0.582084,-0.1036 2.606146,-0.88001 4.497917,-1.72535 5.273117,-2.35629 7.107894,-2.79456 8.275505,-1.97673 l 0.588038,0.41187 v -13.50371 -13.50371 l 0.595312,-0.12155 c 0.327422,-0.0669 3.155157,-0.18392 6.283855,-0.26016 9.540524,-0.23249 14.938304,-1.0007 21.389224,-3.04409 l 3.26522,-1.03429 1.89414,0.65339 c 6.51664,2.24792 12.83855,3.20059 23.19309,3.49504 l 5.95313,0.16928 0.0682,15.81796 c 0.0637,14.76602 0.0989,15.82834 0.52917,15.97401 3.09434,1.04753 4.03281,2.01178 4.03281,4.14357 0,1.04255 -0.62127,5.23514 -0.92844,6.26551 -0.0856,0.28708 0.95186,0.94106 3.75009,2.36394 6.29355,3.20024 6.40358,3.41375 3.53834,6.86635 -1.70681,2.0567 -3.49792,5.2122 -5.01063,8.82752 -0.58825,1.40588 -1.28362,1.64175 -2.25835,0.76605 -0.84968,-0.76337 -2.39387,-1.51159 -5.81238,-2.81633 -3.98266,-1.52007 -5.50509,-2.35064 -6.6679,-3.63773 l -0.92551,-1.02443 -2.91027,2.78873 c -3.61224,3.46139 -7.73527,6.57529 -13.39983,10.12018 -3.15133,1.9721 -4.59764,2.73159 -5.19374,2.72736 -0.5501,-0.004 -1.79872,-0.60413 -3.7366,-1.79622 z m 7.76254,-1.83594 c 8.6872,-5.36622 14.23123,-10.03576 18.53383,-15.61042 0.47734,-0.61846 0.76859,-1.12966 0.64722,-1.136 -0.12136,-0.006 -0.71553,-0.10737 -1.32036,-0.22452 l -1.09969,-0.213 -2.59673,2.78077 c -4.19858,4.49616 -8.28689,7.6699 -14.66742,11.38627 -1.53713,0.89531 -3.07478,1.62784 -3.41701,1.62784 -1.11913,0 -7.6718,-3.8686 -11.73791,-6.92989 -1.18725,-0.89385 -3.54085,-3.03813 -5.23023,-4.76507 l -3.071594,-3.13988 -1.101455,0.17613 c -0.605801,0.0969 -1.168496,0.28461 -1.250435,0.41718 -0.08194,0.13258 0.421356,0.90864 1.118433,1.72458 2.841421,3.32591 6.966611,7.05088 10.948531,9.88629 2.6822,1.90993 9.79613,6.33483 10.18452,6.33483 0.17185,0 1.99898,-1.0418 4.0603,-2.31511 z m -0.68893,-4.53349 c 4.34001,-2.57838 7.37466,-4.70997 10.12431,-7.1115 2.28411,-1.99492 5.61257,-5.52787 5.39564,-5.72712 -0.25727,-0.23629 -5.04852,-0.71747 -9.81531,-0.98575 -5.71796,-0.3218 -12.00942,-0.0747 -19.02765,0.74739 -3.34122,0.39137 -3.81699,0.50427 -3.49252,0.82874 0.46095,0.46095 0.36472,1.08767 -0.22392,1.45834 -0.62029,0.3906 -1.35815,-0.26154 -1.20462,-1.06469 0.0736,-0.38481 -0.0104,-0.6114 -0.22654,-0.6114 -0.19406,0 -0.37949,0.374 -0.42633,0.8599 -0.0693,0.71872 -0.19151,0.85989 -0.74437,0.85989 -0.52491,0 -0.67874,-0.1502 -0.74518,-0.7276 -0.0878,-0.76309 -0.23001,-0.85629 -0.77683,-0.5091 -0.40193,0.2552 0.79353,1.47395 1.72045,1.75397 0.32742,0.0989 0.59531,0.37251 0.59531,0.60799 0,0.59023 1.04702,1.65287 1.62858,1.65287 0.28921,0 0.54357,0.26125 0.64402,0.66146 0.18324,0.73009 0.60052,0.91097 0.54227,0.23505 -0.0473,-0.54826 0.69092,-1.02925 1.25021,-0.81463 0.23806,0.0914 0.43283,0.45475 0.43283,0.80755 0,0.6598 -0.6239,1.09885 -1.12309,0.79034 -0.16594,-0.10256 -0.20405,-0.0486 -0.0928,0.13143 0.10384,0.16801 0.35617,0.30546 0.56074,0.30546 0.20458,0 0.51296,0.26348 0.68531,0.58551 l 0.31335,0.58551 0.22349,-0.60412 c 0.2611,-0.70583 1.19797,-0.69846 1.64382,0.0129 0.21323,0.34023 0.168,0.57183 -0.18865,0.96592 -0.59516,0.65764 -0.21451,0.94152 1.28311,0.9569 0.9541,0.01 1.06866,0.083 1.14334,0.73091 0.0676,0.58666 0.48417,0.96062 2.24895,2.01895 2.22131,1.33211 4.16509,2.38796 4.43435,2.40872 0.0834,0.006 1.53142,-0.80799 3.21773,-1.80982 z m -9.04743,-2.00224 c -0.47863,-0.57671 -0.22101,-1.32376 0.4914,-1.42492 0.97905,-0.13902 1.37611,0.68698 0.66978,1.39331 -0.51557,0.51557 -0.75414,0.52207 -1.16118,0.0316 z m -2.39961,-2.40337 c -0.48074,-0.57925 -0.0165,-1.3135 0.8304,-1.3135 0.52652,0 0.63262,0.13312 0.63262,0.79375 0,0.60325 -0.13256,0.81269 -0.55232,0.87266 -0.30377,0.0434 -0.71359,-0.11541 -0.9107,-0.35291 z m 2.22609,0.0249 c -0.28183,-0.73444 0.0191,-1.33837 0.66692,-1.33837 0.83461,0 1.30739,0.7344 0.83737,1.30074 -0.43437,0.52338 -1.30949,0.54527 -1.50429,0.0376 z m -4.3244,-2.11941 c -0.50636,-0.61014 -0.22131,-1.326 0.56432,-1.41716 0.5231,-0.0607 0.74782,0.0608 0.87949,0.47572 0.32446,1.02229 -0.77936,1.74204 -1.44381,0.94144 z m 2.12608,0.0113 c -0.49883,-0.60105 -0.10246,-1.47925 0.66763,-1.47925 0.7455,0 1.11205,0.66251 0.71522,1.29273 -0.36598,0.58124 -0.98588,0.66485 -1.38285,0.18652 z m 2.42744,0.1976 c -0.48209,-0.19452 -0.40489,-1.40042 0.1021,-1.59497 0.46069,-0.17678 1.19375,0.16765 1.34917,0.63391 0.0975,0.29261 -0.6274,1.15189 -0.94101,1.1154 -0.0987,-0.0115 -0.32836,-0.0809 -0.51026,-0.15434 z m 2.07047,-0.1976 c -0.49882,-0.60105 -0.10246,-1.47925 0.66764,-1.47925 0.7455,0 1.11205,0.66251 0.71522,1.29273 -0.36599,0.58124 -0.98588,0.66485 -1.38286,0.18652 z m -11.30136,-2.40529 c -0.37285,-0.97165 0.70149,-1.82977 1.40724,-1.12402 0.58815,0.58815 0.21833,1.52089 -0.60301,1.52089 -0.35856,0 -0.72046,-0.17859 -0.80423,-0.39687 z m 2.31021,0.0297 c -0.24361,-0.29353 -0.25212,-0.53067 -0.0337,-0.93881 0.50583,-0.94515 1.70469,-0.52676 1.55355,0.54217 -0.10554,0.74646 -1.02944,0.98757 -1.51987,0.39664 z m 2.27958,0.20196 c -0.40979,-0.40979 -0.17722,-1.38989 0.37112,-1.56392 0.77945,-0.24739 1.52646,0.5057 1.12962,1.1388 -0.30544,0.48728 -1.18845,0.73741 -1.50074,0.42512 z m 2.05693,-0.37806 c -0.25255,-0.79572 0.49307,-1.54742 1.13392,-1.14318 0.25194,0.15891 0.45806,0.57361 0.45806,0.92156 0,0.88648 -1.32253,1.0706 -1.59198,0.22162 z m 2.42983,0.3669 c -0.57557,-0.57556 0.0115,-1.67569 0.89427,-1.67569 0.47262,0 0.83763,1.06868 0.5028,1.47212 -0.32887,0.39626 -1.09304,0.50761 -1.39707,0.20357 z m 2.06808,-0.3669 c -0.25255,-0.79572 0.49307,-1.54742 1.13393,-1.14318 0.25193,0.15891 0.45805,0.57361 0.45805,0.92156 0,0.88648 -1.32252,1.0706 -1.59198,0.22162 z m -8.86811,-2.11946 c -0.21843,-0.40814 -0.20992,-0.64527 0.0337,-0.93881 0.49043,-0.59092 1.41433,-0.34982 1.51987,0.39664 0.15114,1.06893 -1.04772,1.48733 -1.55355,0.54217 z m 2.4333,0.31367 c -0.19463,-0.12337 -0.31369,-0.5085 -0.26458,-0.85584 0.1073,-0.75889 1.19413,-0.88584 1.63261,-0.19069 0.50413,0.7992 -0.521,1.58343 -1.36803,1.04653 z m 2.09363,-0.14042 c -0.49883,-0.60104 -0.10246,-1.47925 0.66763,-1.47925 0.7455,0 1.11205,0.66252 0.71522,1.29273 -0.36598,0.58124 -0.98588,0.66485 -1.38285,0.18652 z m 44.27975,9.17023 c 0.41593,-1.76296 2.87784,-6.15302 4.64422,-8.28153 1.02041,-1.22961 1.81632,-2.35472 1.76868,-2.50024 -0.085,-0.25956 -7.90365,-4.40028 -8.04392,-4.26001 -0.0393,0.0393 -0.48561,1.60925 -0.99171,3.48869 -0.5061,1.87943 -1.04591,3.86169 -1.19957,4.40502 -0.49668,1.75615 -1.48771,1.90997 -4.71563,0.73192 -2.55872,-0.93381 -4.12842,-1.03538 -4.52581,-0.29286 -0.60959,1.13903 1.61265,2.6109 7.06142,4.67702 1.71045,0.64859 3.64569,1.52447 4.30053,1.94641 1.49374,0.96246 1.4949,0.96252 1.70179,0.0856 z m -67.318461,-8.775 c 19.410521,-4.72716 38.105931,-5.7379 53.975001,-2.91808 2.74748,0.4882 7.54599,1.60217 8.53299,1.98092 0.71209,0.27325 3.10868,-9.92763 3.10868,-13.23183 0,-1.54578 -0.0633,-1.73744 -0.73032,-2.21243 -3.55513,-2.53148 -20.05104,-4.24378 -34.12829,-3.54258 -9.2893,0.46272 -15.28733,1.2453 -28.821032,3.76038 -3.081978,0.57275 -6.37013,1.1199 -7.307003,1.21588 l -1.703407,0.17452 -0.165596,1.75301 c -0.09108,0.96415 -0.166441,4.68924 -0.167476,8.27797 l -0.0019,6.52498 1.521354,-0.35978 c 0.836745,-0.19787 3.485886,-0.8382 5.88698,-1.42296 z m 2.73195,-5.16034 c -1.146875,-0.51339 -1.520717,-1.21735 -2.101702,-3.95755 -0.273876,-1.29172 -0.646784,-2.40579 -0.828685,-2.4757 -0.686058,-0.26367 -0.290706,-0.85462 0.76126,-1.13789 1.206541,-0.32489 1.868964,-0.0363 1.36171,0.59316 -0.393899,0.48883 0.778628,5.22458 1.407387,5.68434 1.224227,0.89517 3.549255,-0.0617 3.545183,-1.45899 -0.0033,-1.12827 -0.982849,-4.91727 -1.298446,-5.02246 -0.632189,-0.21073 -0.229628,-0.83638 0.705198,-1.09599 1.401155,-0.38912 1.430914,-0.37533 1.254317,0.5814 -0.09247,0.50097 0.06501,1.79201 0.377295,3.09304 0.557827,2.32399 0.509852,3.24977 -0.211315,4.0778 -1.035895,1.18938 -3.550572,1.75524 -4.972202,1.11884 z m 38.609201,-0.34747 c -0.72169,-0.065 -1.12448,-0.2301 -1.12448,-0.4609 0,-0.19778 0.13441,-0.40441 0.2987,-0.45918 0.42302,-0.141 0.68554,-7.61744 0.26747,-7.61744 -0.57615,0 -0.29743,-0.54385 0.41815,-0.81591 0.57865,-0.22001 0.78186,-0.18869 1.03665,0.15975 0.24907,0.34063 0.4311,0.37229 0.85037,0.1479 0.94335,-0.50487 2.31802,-0.33742 3.17926,0.38727 1.62109,1.36406 1.30122,4.54847 -0.55694,5.54454 -0.94636,0.5073 -1.0363,0.51082 -2.21578,0.0867 l -1.22938,-0.44208 0.13105,1.83155 c 0.0721,1.00735 0.11718,1.81075 0.10022,1.78532 -0.0169,-0.0254 -0.53683,-0.0918 -1.15529,-0.1475 z m 3.53226,-3.97751 c 0.91325,-0.60979 1.18897,-2.70609 0.48763,-3.70739 -0.42898,-0.61246 -1.51911,-0.7812 -2.21229,-0.34245 -0.20636,0.13062 -0.45595,0.86689 -0.55464,1.63615 -0.15896,1.23911 -0.10998,1.4681 0.42933,2.00742 0.61271,0.61271 1.3111,0.76608 1.84997,0.40627 z m -33.438966,2.43538 c -1.40542,-0.98439 -1.857917,-3.67098 -0.836916,-4.96897 0.667716,-0.84886 2.265312,-1.36029 3.516212,-1.12562 2.75774,0.51736 3.39103,5.05982 0.85324,6.12018 -1.20842,0.50491 -2.791517,0.49344 -3.532536,-0.0256 z m 3.244066,-1.16808 c 0.59155,-0.65365 0.43416,-2.68044 -0.26843,-3.4568 -0.46874,-0.51795 -1.58368,-0.68306 -2.133491,-0.31594 -0.952966,0.63631 -1.049383,2.36832 -0.205976,3.70011 0.490017,0.77377 1.936907,0.81407 2.607897,0.0726 z m 39.37928,0.76016 c -0.46378,-0.13419 -1.10049,-0.56994 -1.41491,-0.96833 -0.47777,-0.60539 -0.55331,-0.98067 -0.45993,-2.28504 0.0967,-1.35084 0.22524,-1.66211 0.95606,-2.3151 0.64919,-0.58006 1.10327,-0.75352 1.96465,-0.75052 2.0848,0.007 3.18906,1.08937 2.91274,2.85435 -0.1219,0.77864 -0.2126,0.85909 -0.83233,0.73827 -0.38254,-0.0746 -1.38014,-0.21365 -2.21688,-0.30904 -1.37731,-0.15703 -1.52135,-0.12604 -1.52135,0.32733 0,1.38517 1.80195,2.28738 3.43293,1.71882 0.70294,-0.24505 0.8004,-0.21941 0.8004,0.2105 0,0.87633 -1.88389,1.28145 -3.62138,0.77876 z m 2.82763,-4.20012 c 0,-1.24127 -2.31117,-1.65498 -2.9174,-0.52223 -0.38205,0.71388 -0.35381,0.74162 0.86688,0.85156 0.61846,0.0557 1.33284,0.12208 1.5875,0.14751 0.30042,0.03 0.46302,-0.13746 0.46302,-0.47684 z M 93.7956,158.6722 c -0.051,-0.14925 0.0267,-0.46457 0.17265,-0.70071 0.32972,-0.53353 -0.22091,-6.4071 -0.6129,-6.53776 -0.49343,-0.16448 -0.26933,-0.82702 0.32998,-0.9756 0.32743,-0.0812 1.56681,-0.17274 2.75419,-0.20348 1.96073,-0.0508 2.22179,0.003 2.84428,0.58554 0.5351,0.50079 0.68539,0.89503 0.68539,1.79796 0,1.54413 -0.79362,2.35047 -2.54647,2.58731 -0.70949,0.0959 -1.40781,0.2042 -1.55182,0.24076 -0.41382,0.10505 -0.14549,2.10517 0.33172,2.47259 0.2668,0.20542 0.33551,0.42176 0.18047,0.56821 -0.3682,0.34781 -2.47908,0.48256 -2.58749,0.16518 z m 4.32151,-4.90157 c 1.40345,-1.40345 -0.46219,-3.26411 -2.49191,-2.48523 -0.44483,0.1707 -0.52242,0.84119 -0.25315,2.18758 0.15107,0.75534 0.254,0.82682 1.19063,0.82682 0.67248,0 1.20734,-0.18208 1.55443,-0.52917 z m 26.10828,4.46591 c -0.42858,-0.24922 -0.43874,-0.32944 -0.0912,-0.71956 0.55351,-0.62129 1.26103,-7.39337 0.86516,-8.281 -0.15901,-0.35653 0.01,-0.45479 0.94812,-0.55279 1.37748,-0.14383 1.44458,-0.10251 1.06544,0.65607 -0.42071,0.84176 -1.13438,7.9413 -0.82977,8.2546 0.1344,0.13825 0.24437,0.40614 0.24437,0.59532 0,0.41908 -1.50719,0.4515 -2.20213,0.0474 z m -20.81662,-0.14102 c -2.26784,-0.90803 -2.72472,-4.69755 -0.71416,-5.92347 1.13151,-0.68992 2.82309,-0.67615 3.72119,0.0303 0.53442,0.42037 0.69714,0.78283 0.69714,1.55288 0,0.95522 -0.0487,1.01256 -0.99219,1.16851 -0.5457,0.0902 -1.4982,0.16531 -2.11667,0.16691 -1.33019,0.003 -1.47954,0.46565 -0.47504,1.47014 0.74983,0.74984 1.36967,0.80785 2.69867,0.25256 1.16364,-0.4862 1.14981,-0.48613 1.14981,-0.006 0,0.21493 -0.27562,0.57137 -0.6125,0.7921 -0.67468,0.44207 -2.73184,0.74619 -3.35625,0.49618 z m 2.05052,-4.05739 c 0.79428,-0.004 0.76483,-0.67339 -0.0532,-1.20938 -0.95855,-0.62806 -2.5265,0.0718 -2.5265,1.12769 0,0.32954 0.19972,0.37959 0.99219,0.2486 0.5457,-0.0902 1.26008,-0.16531 1.5875,-0.16691 z m 4.38004,3.44833 c -1.55778,-0.94983 -1.83087,-3.84166 -0.48946,-5.18306 1.22707,-1.22707 4.17751,-1.07549 5.05227,0.25956 1.04568,1.59591 0.66201,4.05933 -0.76804,4.93133 -1.06951,0.65215 -2.71796,0.64875 -3.79477,-0.008 z m 3.21173,-1.12886 c 0.22653,-0.32343 0.41188,-1.07084 0.41188,-1.66093 0,-1.40918 -0.59839,-2.24895 -1.60251,-2.24895 -1.14286,0 -1.83708,0.82761 -1.83708,2.19008 0,1.53208 0.57809,2.30783 1.7198,2.30783 0.626,0 1.02016,-0.17721 1.30791,-0.58803 z m 24.73399,11.4725 c 0.4548,-0.84981 -0.23573,-1.27048 -3.25406,-1.98234 l -2.87674,-0.67847 -0.48789,0.58453 c -0.69903,0.83747 -0.62847,0.98065 0.48668,0.98747 0.54571,0.003 1.94469,0.35092 3.10886,0.77239 2.5587,0.92637 2.68939,0.94004 3.02315,0.31642 z m -73.642452,-6.95731 2.75367,-1.89152 0.01846,-2.1423 c 0.04063,-4.71487 0.382283,-8.04414 0.882172,-8.59651 0.262464,-0.29002 1.506647,-0.95814 2.764849,-1.48471 2.447168,-1.02416 3.478267,-1.78252 3.478267,-2.55824 0,-1.02981 -2.516029,-0.40001 -7.097515,1.77662 -1.407878,0.66887 -3.183222,1.35909 -3.94521,1.53383 l -1.385432,0.3177 -0.118825,5.41888 c -0.07767,3.54221 -0.258973,6.01448 -0.523503,7.13868 -0.534225,2.27034 -0.534587,2.74516 -0.0019,2.54077 0.231731,-0.0889 1.660482,-1.01287 3.175001,-2.0532 z m 8.64065,-10.95053 2.579688,-0.43387 v -2.18354 -2.18353 l -1.009508,0.95122 c -0.616412,0.58082 -1.795687,1.24607 -3.02849,1.70842 -2.066452,0.77501 -2.84117,1.34377 -2.84117,2.08585 0,0.7513 0.150548,0.75324 4.29948,0.0555 z m 5.88698,-1.05146 0.661458,-0.13733 v -14.12186 c 0,-12.63322 0.04412,-14.13879 0.418515,-14.28246 0.230183,-0.0883 1.926824,-0.16128 3.770313,-0.16211 4.318127,-0.002 11.911946,-0.66913 15.125756,-1.32894 1.38245,-0.28382 3.79229,-0.92018 5.3552,-1.41412 l 2.84166,-0.89807 3.24376,1.02952 c 5.36513,1.70282 9.54938,2.28228 18.58959,2.57441 l 5.29167,0.171 0.0686,13.26073 0.0686,13.26074 1.32049,0.26109 1.32049,0.26109 v -15.00318 -15.00318 l -5.75469,-0.16196 c -6.00036,-0.16888 -11.97971,-0.71198 -15.22903,-1.38325 -1.04651,-0.21619 -3.47934,-0.88773 -5.40629,-1.49231 l -3.50355,-1.09923 -3.11103,0.96913 c -6.36185,1.98182 -11.70342,2.73553 -21.301139,3.00566 l -5.754688,0.16196 v 15.97234 15.97233 l 0.661458,-0.13734 c 0.363802,-0.0755 0.959115,-0.19913 1.322917,-0.27466 z m 4.424349,-0.82729 c 0.368271,-0.10076 0.398303,-0.21641 0.156681,-0.6033 -0.422761,-0.67695 -0.08342,-1.34249 0.684503,-1.34249 0.664392,0 1.152487,0.78475 0.821347,1.32054 -0.09074,0.14683 3.24e-4,0.26696 0.202368,0.26696 0.204449,0 0.358036,-0.24863 0.346344,-0.56066 -0.025,-0.66722 0.65907,-1.17784 1.265946,-0.94496 0.238061,0.0913 0.432838,0.40795 0.432838,0.70356 0,0.73114 0.471571,0.68386 0.57691,-0.0578 0.107715,-0.75843 1.234386,-0.97401 1.707676,-0.32675 0.31012,0.42411 0.5961,0.41807 4.77733,-0.1009 7.52282,-0.93372 12.113,-1.16066 21.27129,-1.0517 8.56016,0.10185 8.6884,0.0955 8.76402,-0.43234 0.0537,-0.37457 0.2757,-0.53571 0.73819,-0.53571 0.52491,0 0.67874,0.15021 0.74518,0.72761 0.0975,0.84711 0.76221,0.99892 0.73104,0.16695 -0.025,-0.66722 0.65907,-1.17785 1.26594,-0.94497 0.26901,0.10323 0.43284,0.46967 0.43284,0.96815 0,0.62679 0.11612,0.80206 0.53141,0.80206 0.45768,0 0.48742,-0.0704 0.21436,-0.50769 -0.24963,-0.39972 -0.24322,-0.59664 0.0301,-0.92604 0.7949,-0.9578 2.03983,-0.11653 1.38329,0.93476 -0.32814,0.52543 -0.32331,0.52785 1.7434,0.8718 0.65029,0.10822 0.85989,0.0468 0.85989,-0.2522 0,-0.28156 -0.17693,-0.35089 -0.61494,-0.24096 -0.77756,0.19516 -1.34831,-0.43551 -1.10057,-1.21609 0.14261,-0.44929 0.34078,-0.5445 0.94791,-0.45539 0.61054,0.0896 0.7676,0.0127 0.7676,-0.37573 0,-0.37897 -0.13776,-0.4538 -0.61494,-0.33404 -0.3986,0.10004 -0.74227,9.3e-4 -0.97685,-0.28172 -0.49938,-0.60171 -0.006,-1.32089 0.89771,-1.30732 0.49704,0.007 0.69408,-0.12541 0.69408,-0.46806 0,-0.36862 -0.1412,-0.44305 -0.61494,-0.32415 -0.3986,0.10004 -0.74227,9.3e-4 -0.97685,-0.28172 -0.49938,-0.60171 -0.006,-1.32089 0.89771,-1.30732 0.49704,0.007 0.69408,-0.12541 0.69408,-0.46806 0,-0.36862 -0.1412,-0.44305 -0.61494,-0.32415 -0.3986,0.10004 -0.74227,9.3e-4 -0.97685,-0.28172 -0.49938,-0.60171 -0.006,-1.32089 0.89771,-1.30732 0.46706,0.007 0.69408,-0.12944 0.69408,-0.41719 0,-0.32141 -0.19067,-0.39965 -0.7676,-0.31497 -0.60713,0.0891 -0.8053,-0.006 -0.94791,-0.4554 -0.24774,-0.78058 0.32301,-1.41124 1.10057,-1.21609 0.48331,0.12131 0.61494,0.0458 0.61494,-0.35273 0,-0.4037 -0.1753,-0.49912 -0.85989,-0.46806 -0.68577,0.0311 -0.87588,-0.0728 -0.93881,-0.51331 -0.11496,-0.80458 0.63766,-1.3589 1.29102,-0.95087 0.44449,0.27759 0.50768,0.24235 0.50768,-0.28306 0,-0.50119 -0.14175,-0.59969 -0.85989,-0.59756 -0.67134,0.002 -0.8772,-0.11855 -0.93881,-0.54976 -0.11496,-0.80458 0.63766,-1.3589 1.29102,-0.95087 0.44449,0.27759 0.50768,0.24235 0.50768,-0.28306 0,-0.50119 -0.14175,-0.59969 -0.85989,-0.59756 -0.67134,0.002 -0.8772,-0.11855 -0.93881,-0.54976 -0.11351,-0.79446 0.55828,-1.28354 1.25262,-0.91194 0.48519,0.25967 0.54608,0.21721 0.54608,-0.38075 0,-0.59729 -0.0571,-0.63734 -0.50768,-0.35596 -0.65336,0.40803 -1.40598,-0.14629 -1.29102,-0.95088 0.0616,-0.4312 0.26747,-0.55175 0.93881,-0.54976 0.71814,0.002 0.85989,-0.0964 0.85989,-0.59755 0,-0.52542 -0.0632,-0.56065 -0.50768,-0.28306 -0.65336,0.40803 -1.40598,-0.14629 -1.29102,-0.95088 0.0616,-0.4312 0.26747,-0.55175 0.93881,-0.54976 0.78616,0.002 0.85989,-0.0679 0.85989,-0.81944 v -0.822 l -4.96094,-0.16024 c -8.56082,-0.27653 -12.60343,-0.83728 -17.86097,-2.47751 l -3.11045,-0.97038 -2.71038,0.84666 c -3.79177,1.18447 -7.12545,1.82055 -11.48079,2.19061 -3.40939,0.28968 -3.71889,0.3581 -3.46425,0.76585 0.1538,0.24627 0.20401,0.64482 0.11158,0.88568 -0.41998,1.09444 -1.914765,0.60875 -1.693224,-0.55017 0.111104,-0.58121 0.04209,-0.61141 -1.397242,-0.61141 -1.439336,0 -1.508347,0.0302 -1.397243,0.61141 0.154221,0.80675 -0.58502,1.45694 -1.204623,1.05952 -0.242464,-0.15553 -0.43615,-0.59511 -0.430413,-0.97685 0.0059,-0.39558 -0.136289,-0.69408 -0.330729,-0.69408 -0.202677,0 -0.341159,0.3222 -0.341159,0.79375 0,0.43657 -0.04979,0.79375 -0.110653,0.79375 -0.06086,0 -0.283631,0.0664 -0.495051,0.14751 -0.21142,0.0811 -0.578345,-0.0464 -0.81539,-0.28348 -0.398264,-0.39827 -0.430682,-0.10309 -0.426939,3.88739 0.0023,2.46557 0.100292,4.16654 0.22836,3.9645 0.123369,-0.19464 0.508499,-0.3137 0.855844,-0.26459 0.903683,0.12778 0.903683,1.37374 0,1.50151 -0.347345,0.0491 -0.732475,-0.0699 -0.855844,-0.26458 -0.149478,-0.23583 -0.22566,-0.0663 -0.22836,0.50826 -0.0036,0.77587 0.04539,0.83126 0.490068,0.55355 0.701886,-0.43833 1.357965,-0.0997 1.357965,0.70098 0,0.80064 -0.656079,1.1393 -1.357965,0.70097 -0.442276,-0.27621 -0.494119,-0.22308 -0.494119,0.50631 0,0.74081 0.0378,0.77709 0.415774,0.39911 0.47431,-0.47431 0.457633,-0.47012 1.017795,-0.25517 0.54963,0.21091 0.539748,1.39699 -0.01341,1.60925 -0.237558,0.0912 -0.654276,0.0269 -0.926041,-0.14283 -0.441438,-0.27569 -0.494119,-0.22348 -0.494119,0.48965 0,0.71313 0.05268,0.76533 0.494119,0.48965 0.701886,-0.43834 1.357965,-0.0997 1.357965,0.70097 0,0.80065 -0.656079,1.13931 -1.357965,0.70098 -0.442276,-0.27621 -0.494119,-0.22309 -0.494119,0.5063 0,0.74081 0.0378,0.7771 0.415774,0.39912 0.47431,-0.47431 0.457633,-0.47013 1.017795,-0.25517 0.54963,0.21091 0.539748,1.39698 -0.01341,1.60925 -0.237558,0.0912 -0.654276,0.0269 -0.926041,-0.14284 -0.441438,-0.27568 -0.494119,-0.22347 -0.494119,0.48966 0,0.71312 0.05268,0.76533 0.494119,0.48965 0.690759,-0.43139 1.357965,-0.0998 1.357965,0.67484 0,0.86632 -0.999094,1.22382 -1.501195,0.53715 -0.318337,-0.43535 -0.350889,-0.40133 -0.350889,0.36669 0,0.76032 0.05034,0.81513 0.494119,0.53798 0.701886,-0.43833 1.357965,-0.0997 1.357965,0.70098 0,0.80064 -0.656079,1.13931 -1.357965,0.70097 -0.441438,-0.27568 -0.494119,-0.22348 -0.494119,0.48965 0,0.71313 0.05268,0.76534 0.494119,0.48965 0.690759,-0.43138 1.357965,-0.0998 1.357965,0.67484 0,0.86633 -0.999094,1.22382 -1.501195,0.53716 -0.322886,-0.44157 -0.350889,-0.42209 -0.350889,0.24415 0,0.69001 0.0466,0.71615 0.992188,0.55663 0.545703,-0.0921 1.197207,-0.22348 1.447786,-0.29205 z m 0.03696,-2.87184 c -0.372857,-0.97165 0.701485,-1.82976 1.407237,-1.12401 0.58815,0.58815 0.218332,1.52089 -0.60301,1.52089 -0.358563,0 -0.720465,-0.17859 -0.804227,-0.39688 z m 2.348625,0.0895 c -0.708996,-0.709 0.0095,-1.7253 0.997964,-1.41158 0.415335,0.13182 0.536483,0.35637 0.475717,0.88175 -0.09082,0.78526 -0.920104,1.0834 -1.473681,0.52983 z m 2.149292,-0.0895 c -0.372857,-0.97165 0.701486,-1.82976 1.407236,-1.12401 0.58815,0.58815 0.21833,1.52089 -0.60301,1.52089 -0.35856,0 -0.720464,-0.17859 -0.804226,-0.39688 z m 36.525556,-1.81807 c -0.29413,-0.7665 0.006,-1.35693 0.68865,-1.35693 0.55453,0 0.65783,0.12464 0.65783,0.79375 0,0.62218 -0.12893,0.81206 -0.5965,0.87846 -0.34982,0.0497 -0.65996,-0.0807 -0.74998,-0.31528 z m 2.26471,-0.0434 c -0.48074,-0.57925 -0.0165,-1.31351 0.8304,-1.31351 0.52652,0 0.63262,0.13312 0.63262,0.79375 0,0.60325 -0.13256,0.81269 -0.55232,0.87267 -0.30377,0.0434 -0.71359,-0.11541 -0.9107,-0.35291 z m 2.37066,-0.0128 c -0.47086,-0.56735 0.003,-1.30074 0.84099,-1.30074 0.46547,0 0.65621,0.16686 0.72192,0.63154 0.14132,0.99953 -0.91381,1.45132 -1.56291,0.6692 z m -45.479392,-0.22969 c -0.506368,-0.61014 -0.22131,-1.326 0.564315,-1.41716 0.523102,-0.0607 0.747819,0.0608 0.879493,0.47572 0.324462,1.02229 -0.779365,1.74204 -1.443808,0.94144 z m 2.087712,-0.0349 c -0.470861,-0.56735 0.0033,-1.30074 0.840993,-1.30074 0.465475,0 0.656215,0.16686 0.721917,0.63154 0.141327,0.99953 -0.91381,1.45132 -1.56291,0.6692 z m 2.410205,0.0349 c -0.550957,-0.66387 -0.223576,-1.33563 0.650915,-1.33563 0.9426,0 1.24928,0.82907 0.50736,1.37157 -0.6046,0.4421 -0.76568,0.4371 -1.158275,-0.0359 z m 2.265085,0.0395 c -0.69844,-0.51071 -0.44313,-1.35709 0.44011,-1.45901 0.82032,-0.0947 1.24405,0.54551 0.81319,1.22856 -0.36376,0.57669 -0.69619,0.63782 -1.2533,0.23045 z m 22.35058,-2.14485 c -0.49883,-0.60104 -0.10246,-1.47925 0.66764,-1.47925 0.7455,0 1.11204,0.66252 0.71522,1.29274 -0.36599,0.58123 -0.98588,0.66484 -1.38286,0.18651 z m 2.37184,-0.0113 c -0.55095,-0.66386 -0.22357,-1.33563 0.65091,-1.33563 0.5467,0 0.81444,0.14505 0.87812,0.47573 0.10505,0.54549 -0.38804,1.24407 -0.87812,1.24407 -0.18264,0 -0.47555,-0.17288 -0.65091,-0.38417 z m 2.4137,0.15175 c -0.19463,-0.12337 -0.31369,-0.50849 -0.26458,-0.85584 0.1073,-0.75889 1.19413,-0.88584 1.63261,-0.19069 0.50413,0.7992 -0.521,1.58343 -1.36803,1.04653 z m 4.55653,-0.149 c -0.2481,-0.64654 0.0115,-1.32745 0.5454,-1.43026 0.69925,-0.13466 1.26515,0.67588 0.92093,1.31906 -0.3121,0.58316 -1.2577,0.65487 -1.46633,0.1112 z m 2.38837,0.0186 c -0.29413,-0.7665 0.006,-1.35693 0.68865,-1.35693 0.55453,0 0.65783,0.12464 0.65783,0.79375 0,0.62218 -0.12893,0.81206 -0.5965,0.87846 -0.34982,0.0497 -0.65996,-0.0807 -0.74998,-0.31528 z m 2.26471,-0.0434 c -0.48074,-0.57925 -0.0165,-1.31351 0.8304,-1.31351 0.52652,0 0.63262,0.13312 0.63262,0.79375 0,0.60325 -0.13256,0.81269 -0.55232,0.87267 -0.30377,0.0434 -0.71359,-0.11541 -0.9107,-0.35291 z m 2.37066,-0.0128 c -0.47086,-0.56735 0.003,-1.30074 0.84099,-1.30074 0.46547,0 0.65621,0.16686 0.72192,0.63154 0.14132,0.99953 -0.91381,1.45132 -1.56291,0.6692 z m -45.565988,-0.01 c -0.314739,-0.31474 -0.211489,-1.07483 0.191426,-1.40922 0.565973,-0.46972 1.528626,0.11501 1.422032,0.86376 -0.08248,0.57938 -1.201301,0.95762 -1.613458,0.54546 z m 2.102526,-0.21832 c -0.351227,-0.91529 0.610866,-1.76095 1.327117,-1.16651 0.206859,0.17168 0.340596,0.56069 0.297194,0.86446 -0.09843,0.68888 -1.384125,0.92796 -1.624311,0.30205 z m 2.302536,-0.0143 c -0.372857,-0.97165 0.701486,-1.82977 1.407236,-1.12402 0.58815,0.58815 0.21833,1.52089 -0.60301,1.52089 -0.35856,0 -0.720464,-0.17859 -0.804226,-0.39687 z m 2.298966,0.0161 c -0.39176,-0.47203 -0.20385,-1.15028 0.38085,-1.37465 0.56732,-0.2177 1.23443,0.40897 1.13988,1.07078 -0.0969,0.67851 -1.05151,0.86926 -1.52073,0.30387 z m 2.27966,0.20435 c -0.32867,-0.32866 -0.17869,-1.35361 0.22049,-1.50679 0.89329,-0.34279 1.74259,0.62122 1.16279,1.31984 -0.31729,0.38232 -1.08426,0.48597 -1.38328,0.18695 z m 2.02216,-0.25645 c -0.21888,-0.57038 0.25115,-1.28695 0.84416,-1.28695 0.25932,0 0.59272,0.19218 0.74088,0.42706 0.40421,0.6408 0.0306,1.29273 -0.74088,1.29273 -0.38369,0 -0.75018,-0.18791 -0.84416,-0.43284 z m 2.48692,0.26761 c -0.33778,-0.33778 -0.19651,-1.36221 0.20932,-1.51795 0.7071,-0.27134 1.2245,0.11807 1.1388,0.85709 -0.079,0.68131 -0.91692,1.09206 -1.34812,0.66086 z m -13.406172,-2.3356 c -0.506368,-0.61014 -0.22131,-1.326 0.564315,-1.41716 0.523102,-0.0607 0.747819,0.0609 0.879493,0.47572 0.324462,1.02229 -0.779365,1.74204 -1.443808,0.94144 z m 2.087712,-0.0349 c -0.470861,-0.56735 0.0033,-1.30074 0.840993,-1.30074 0.465475,0 0.656215,0.16686 0.721917,0.63154 0.141327,0.99953 -0.91381,1.45132 -1.56291,0.6692 z m 2.410205,0.0349 c -0.506367,-0.61014 -0.22131,-1.326 0.564315,-1.41716 0.5231,-0.0607 0.74782,0.0609 0.87949,0.47572 0.32447,1.02229 -0.77936,1.74204 -1.443805,0.94144 z m 2.087715,-0.0349 c -0.47002,-0.56634 0.003,-1.30074 0.83737,-1.30074 0.71995,0 0.9916,0.73534 0.4934,1.33563 -0.41494,0.49998 -0.89737,0.48733 -1.33077,-0.0349 z m 2.23668,0.0376 c -0.25682,-0.66928 0.0186,-1.33586 0.5857,-1.41728 0.79199,-0.11371 1.28039,0.55913 0.90924,1.25263 -0.33536,0.62662 -1.27783,0.73043 -1.49494,0.16465 z m 2.26124,-0.0376 c -0.47002,-0.56634 0.003,-1.30074 0.83736,-1.30074 0.71996,0 0.99161,0.73534 0.49341,1.33563 -0.41494,0.49998 -0.89737,0.48733 -1.33077,-0.0349 z m 15.61042,0 c -0.47086,-0.56735 0.003,-1.30074 0.84099,-1.30074 0.46548,0 0.65622,0.16686 0.72192,0.63154 0.14132,0.99953 -0.91381,1.45132 -1.56291,0.6692 z m 2.38125,0 c -0.47002,-0.56634 0.003,-1.30074 0.83737,-1.30074 0.71995,0 0.9916,0.73534 0.4934,1.33563 -0.41494,0.49998 -0.89737,0.48733 -1.33077,-0.0349 z m 2.4102,0.0349 c -0.50636,-0.61014 -0.22131,-1.326 0.56432,-1.41716 0.5231,-0.0607 0.74782,0.0609 0.87949,0.47572 0.32446,1.02229 -0.77936,1.74204 -1.44381,0.94144 z m 2.20773,0.003 c -0.28183,-0.73443 0.0191,-1.33837 0.66693,-1.33837 0.8346,0 1.30739,0.7344 0.83737,1.30074 -0.43437,0.52338 -1.3095,0.54528 -1.5043,0.0376 z m 2.58722,0.14901 c -0.19463,-0.12337 -0.31369,-0.5085 -0.26458,-0.85584 0.1073,-0.75889 1.19413,-0.88584 1.63261,-0.19069 0.50413,0.7992 -0.521,1.58343 -1.36803,1.04653 z m 2.17528,-0.14901 c -0.2481,-0.64653 0.0115,-1.32744 0.5454,-1.43025 0.69925,-0.13466 1.26515,0.67588 0.92093,1.31906 -0.3121,0.58316 -1.2577,0.65487 -1.46633,0.11119 z m 2.38837,0.0186 c -0.29413,-0.7665 0.006,-1.35693 0.68865,-1.35693 0.55453,0 0.65783,0.12464 0.65783,0.79375 0,0.62218 -0.12893,0.81206 -0.5965,0.87846 -0.34982,0.0497 -0.65996,-0.0807 -0.74998,-0.31528 z m 2.26471,-0.0434 c -0.48074,-0.57925 -0.0165,-1.31351 0.8304,-1.31351 0.52652,0 0.63262,0.13312 0.63262,0.79375 0,0.60325 -0.13256,0.81269 -0.55232,0.87267 -0.30377,0.0434 -0.71359,-0.11541 -0.9107,-0.35291 z m 2.38125,0 c -0.48074,-0.57925 -0.0165,-1.31351 0.8304,-1.31351 0.52652,0 0.63262,0.13312 0.63262,0.79375 0,0.60325 -0.13256,0.81269 -0.55232,0.87267 -0.30377,0.0434 -0.71359,-0.11541 -0.9107,-0.35291 z m -45.576578,-2.13921 c -0.314739,-0.31474 -0.211489,-1.07483 0.191426,-1.40922 0.565973,-0.46971 1.528626,0.11501 1.422032,0.86376 -0.08248,0.57938 -1.201301,0.95762 -1.613458,0.54546 z m 2.102526,-0.21832 c -0.351227,-0.91528 0.610866,-1.76094 1.327117,-1.16651 0.206859,0.17168 0.340596,0.56069 0.297194,0.86446 -0.09843,0.68888 -1.384125,0.92796 -1.624311,0.30205 z m 2.288735,-0.0503 c -0.218876,-0.57039 0.251151,-1.28696 0.844167,-1.28696 0.25932,0 0.59271,0.19218 0.74087,0.42706 0.40421,0.64081 0.0306,1.29273 -0.74087,1.29273 -0.38369,0 -0.75018,-0.18791 -0.844167,-0.43283 z m 2.162597,-0.11045 c -0.25255,-0.79572 0.49307,-1.54743 1.13393,-1.14319 0.25193,0.15892 0.45805,0.57362 0.45805,0.92156 0,0.88648 -1.32253,1.0706 -1.59198,0.22163 z m 2.34912,0.14641 c -0.24992,-0.6513 0.10963,-1.19063 0.79375,-1.19063 0.3528,0 0.70999,0.1786 0.79375,0.39688 0.24993,0.6513 -0.10963,1.19062 -0.79375,1.19062 -0.3528,0 -0.70999,-0.17859 -0.79375,-0.39687 z m 2.12347,0.0177 c -0.28404,-0.7402 0.10623,-1.24986 0.8882,-1.15992 0.57896,0.0666 0.72911,0.22008 0.72911,0.74532 0,0.52525 -0.15015,0.67873 -0.72911,0.74533 -0.47547,0.0547 -0.78445,-0.0604 -0.8882,-0.33073 z m 15.63575,-0.16413 c -0.25255,-0.79572 0.49307,-1.54743 1.13393,-1.14319 0.25193,0.15892 0.45805,0.57362 0.45805,0.92156 0,0.88648 -1.32253,1.0706 -1.59198,0.22163 z m 2.33532,0.11045 c -0.21888,-0.57039 0.25115,-1.28696 0.84416,-1.28696 0.25932,0 0.59272,0.19218 0.74088,0.42706 0.40421,0.64081 0.0306,1.29273 -0.74088,1.29273 -0.38369,0 -0.75017,-0.18791 -0.84416,-0.43283 z m 2.38125,0 c -0.21888,-0.57039 0.25115,-1.28696 0.84416,-1.28696 0.25932,0 0.59272,0.19218 0.74088,0.42706 0.40421,0.64081 0.0306,1.29273 -0.74088,1.29273 -0.38369,0 -0.75017,-0.18791 -0.84416,-0.43283 z m 2.48692,0.26761 c -0.40979,-0.4098 -0.17722,-1.3899 0.37112,-1.56393 0.77944,-0.24739 1.52646,0.50571 1.12962,1.13881 -0.30544,0.48727 -1.18845,0.73741 -1.50074,0.42512 z m 2.27558,-0.26761 c -0.38979,-1.01578 1.01595,-1.76209 1.59373,-0.84611 0.2018,0.31991 0.18268,0.55579 -0.0697,0.85989 -0.45259,0.54533 -1.31246,0.53755 -1.52403,-0.0138 z m 2.40098,0.0514 c -0.2481,-0.64653 0.0115,-1.32744 0.5454,-1.43025 0.69925,-0.13466 1.26515,0.67588 0.92093,1.31906 -0.3121,0.58316 -1.2577,0.65487 -1.46633,0.11119 z m 2.38837,0.0186 c -0.29413,-0.7665 0.006,-1.35693 0.68865,-1.35693 0.55453,0 0.65783,0.12464 0.65783,0.79375 0,0.62218 -0.12893,0.81206 -0.5965,0.87846 -0.34982,0.0497 -0.65996,-0.0807 -0.74998,-0.31528 z m 2.33558,0.0555 c -0.709,-0.70899 0.01,-1.7253 0.99796,-1.41157 0.41534,0.13182 0.53649,0.35637 0.47572,0.88175 -0.0908,0.78525 -0.92011,1.0834 -1.47368,0.52982 z m 2.38125,0 c -0.709,-0.70899 0.01,-1.7253 0.99796,-1.41157 0.41534,0.13182 0.53649,0.35637 0.47572,0.88175 -0.0908,0.78525 -0.92011,1.0834 -1.47368,0.52982 z m -45.560852,-2.19347 c -0.506368,-0.61013 -0.22131,-1.32599 0.564315,-1.41715 0.523102,-0.0607 0.747819,0.0609 0.879493,0.47572 0.324462,1.02228 -0.779365,1.74204 -1.443808,0.94143 z m 2.087712,-0.0349 c -0.470861,-0.56735 0.0033,-1.30073 0.840993,-1.30073 0.465475,0 0.656215,0.16686 0.721917,0.63153 0.141327,0.99954 -0.91381,1.45132 -1.56291,0.6692 z m 2.410205,0.0349 c -0.506367,-0.61013 -0.22131,-1.32599 0.564315,-1.41715 0.5231,-0.0607 0.74782,0.0609 0.87949,0.47572 0.32447,1.02228 -0.77936,1.74204 -1.443805,0.94143 z m 2.087715,-0.0349 c -0.47002,-0.56633 0.003,-1.30073 0.83737,-1.30073 0.71995,0 0.9916,0.73533 0.4934,1.33562 -0.41494,0.49998 -0.89737,0.48733 -1.33077,-0.0349 z m 2.23668,0.0376 c -0.25682,-0.66928 0.0186,-1.33587 0.5857,-1.41729 0.79199,-0.11371 1.28039,0.55914 0.90924,1.25263 -0.33536,0.62663 -1.27783,0.73043 -1.49494,0.16466 z m 2.29019,-0.003 c -0.55096,-0.66386 -0.22358,-1.33562 0.65091,-1.33562 0.5467,0 0.81444,0.14505 0.87812,0.47573 0.10505,0.54548 -0.38804,1.24406 -0.87812,1.24406 -0.18265,0 -0.47555,-0.17288 -0.65091,-0.38417 z m 2.21485,0.0213 c -0.29414,-0.7665 0.005,-1.35692 0.68864,-1.35692 0.55454,0 0.65784,0.12463 0.65784,0.79375 0,0.62217 -0.12894,0.81205 -0.5965,0.87845 -0.34983,0.0497 -0.65996,-0.0807 -0.74998,-0.31528 z m 2.28307,-0.0213 c -0.55096,-0.66386 -0.22358,-1.33562 0.65091,-1.33562 0.5467,0 0.81444,0.14505 0.87812,0.47573 0.10505,0.54548 -0.38804,1.24406 -0.87812,1.24406 -0.18265,0 -0.47556,-0.17288 -0.65091,-0.38417 z m 8.71289,-0.2867 c -0.48073,-0.57925 -0.0165,-1.31351 0.8304,-1.31351 0.52652,0 0.63262,0.13312 0.63262,0.79375 0,0.60325 -0.13255,0.81269 -0.55232,0.87267 -0.30377,0.0434 -0.71359,-0.11541 -0.9107,-0.35291 z m 2.45212,0.0989 c -0.709,-0.70899 0.01,-1.7253 0.99796,-1.41158 0.41534,0.13183 0.53649,0.35638 0.47572,0.88176 -0.0908,0.78525 -0.9201,1.0834 -1.47368,0.52982 z m 2.33159,-0.0734 c -0.39176,-0.47204 -0.20385,-1.15029 0.38085,-1.37466 0.56732,-0.2177 1.23443,0.40898 1.13988,1.07078 -0.0969,0.67852 -1.05151,0.86926 -1.52073,0.30388 z m 2.29082,0.21551 c -0.40979,-0.4098 -0.17722,-1.3899 0.37112,-1.56393 0.77944,-0.24739 1.52646,0.5057 1.12962,1.13881 -0.30544,0.48727 -1.18845,0.7374 -1.50074,0.42512 z m 2.27558,-0.26761 c -0.38979,-1.01578 1.01595,-1.76209 1.59373,-0.84611 0.2018,0.31991 0.18268,0.55579 -0.0697,0.85989 -0.45259,0.54533 -1.31246,0.53755 -1.52403,-0.0138 z m 2.39505,0.036 c -0.37285,-0.97165 0.70149,-1.82977 1.40724,-1.12402 0.58815,0.58815 0.21833,1.52089 -0.60301,1.52089 -0.35856,0 -0.72047,-0.17859 -0.80423,-0.39687 z m 2.38718,0.0155 c -0.2481,-0.64653 0.0115,-1.32744 0.5454,-1.43025 0.69925,-0.13466 1.26515,0.67588 0.92093,1.31906 -0.3121,0.58316 -1.2577,0.65487 -1.46633,0.11119 z m 2.27183,-0.0249 c -0.48074,-0.57925 -0.0165,-1.31351 0.8304,-1.31351 0.52652,0 0.63262,0.13312 0.63262,0.79375 0,0.60325 -0.13256,0.81269 -0.55232,0.87267 -0.30377,0.0434 -0.71359,-0.11541 -0.9107,-0.35291 z m 2.41722,-0.0703 c -0.35361,-0.66071 0.20271,-1.47177 0.91537,-1.33452 0.77481,0.14921 0.71881,1.6493 -0.0657,1.76099 -0.3587,0.0511 -0.68053,-0.11047 -0.84964,-0.42647 z m 2.34528,0.0703 c -0.48074,-0.57925 -0.0165,-1.31351 0.8304,-1.31351 0.52652,0 0.63262,0.13312 0.63262,0.79375 0,0.60325 -0.13256,0.81269 -0.55232,0.87267 -0.30377,0.0434 -0.71359,-0.11541 -0.9107,-0.35291 z m -45.662634,-2.08954 c -0.28404,-0.74019 0.106236,-1.24986 0.888203,-1.15992 0.578963,0.0666 0.729109,0.22008 0.729109,0.74533 0,0.52524 -0.150146,0.67873 -0.729109,0.74532 -0.475473,0.0547 -0.784452,-0.0604 -0.888203,-0.33073 z m 4.497917,0 c -0.28404,-0.74019 0.106236,-1.24986 0.888207,-1.15992 0.57896,0.0666 0.72911,0.22008 0.72911,0.74533 0,0.52524 -0.15015,0.67873 -0.72911,0.74532 -0.47548,0.0547 -0.784456,-0.0604 -0.888207,-0.33073 z m 2.188587,-0.003 c -0.27642,-0.72032 0.10698,-1.23946 0.85159,-1.15311 0.54221,0.0629 0.6938,0.22498 0.6938,0.74192 0,0.51693 -0.15159,0.67904 -0.6938,0.74191 -0.4395,0.051 -0.75164,-0.0702 -0.85159,-0.33072 z m 2.30253,-0.0143 c -0.24992,-0.65129 0.10963,-1.19062 0.79375,-1.19062 0.3528,0 0.70999,0.17859 0.79375,0.39687 0.24993,0.6513 -0.10963,1.19063 -0.79375,1.19063 -0.3528,0 -0.70999,-0.1786 -0.79375,-0.39688 z m 2.20952,0.23264 c -0.71273,-0.71274 0.52012,-2.04285 1.29636,-1.39863 0.612,0.50792 0.34896,1.41727 -0.43646,1.50887 -0.36925,0.0431 -0.7562,-0.007 -0.8599,-0.11024 z m 2.36911,-0.0121 c -0.29902,-0.29902 -0.19537,-1.06599 0.18695,-1.38328 0.69862,-0.57981 1.66263,0.2695 1.31984,1.16279 -0.15318,0.39918 -1.17813,0.54916 -1.50679,0.22049 z m 13.24132,-0.25244 c -0.71274,-0.71273 0.52011,-2.04284 1.29635,-1.39862 0.612,0.50791 0.34896,1.41727 -0.43646,1.50887 -0.36925,0.0431 -0.7562,-0.007 -0.85989,-0.11025 z m 2.27459,-0.26859 c -0.21888,-0.57039 0.25115,-1.28696 0.84416,-1.28696 0.25932,0 0.59272,0.19218 0.74088,0.42706 0.40421,0.64081 0.0306,1.29273 -0.74088,1.29273 -0.38369,0 -0.75017,-0.18791 -0.84416,-0.43283 z m 2.48791,0.26859 c -0.31474,-0.31474 -0.21149,-1.07483 0.19142,-1.40922 0.56598,-0.46972 1.52863,0.11501 1.42203,0.86376 -0.0825,0.57938 -1.2013,0.95762 -1.61345,0.54546 z m 2.38125,0 c -0.31474,-0.31474 -0.21149,-1.07483 0.19142,-1.40922 0.56598,-0.46972 1.52863,0.11501 1.42203,0.86376 -0.0825,0.57938 -1.2013,0.95762 -1.61345,0.54546 z m 2.28839,-0.23263 c -0.37285,-0.97165 0.70149,-1.82977 1.40724,-1.12402 0.58815,0.58815 0.21833,1.52089 -0.60301,1.52089 -0.35856,0 -0.72047,-0.17859 -0.80423,-0.39687 z m 2.46196,0.22049 c -0.33683,-0.33683 -0.17405,-1.3554 0.24213,-1.5151 0.56012,-0.21494 0.54352,-0.21909 1.01727,0.25465 0.31344,0.31345 0.34823,0.54047 0.14188,0.92604 -0.26715,0.49918 -1.04975,0.68594 -1.40128,0.33441 z m 2.11467,-0.20618 c -0.35122,-0.91528 0.61087,-1.76094 1.32712,-1.16651 0.20686,0.17168 0.3406,0.56069 0.29719,0.86446 -0.0984,0.68888 -1.38412,0.92796 -1.62431,0.30205 z m 2.50987,0.032 c -0.59444,-0.71625 0.25123,-1.67834 1.16651,-1.32711 0.62591,0.24018 0.38683,1.52588 -0.30205,1.62431 -0.30377,0.0434 -0.69278,-0.0903 -0.86446,-0.2972 z m 2.19594,-0.22458 c -0.18709,-0.58944 0.50062,-1.3795 1.04332,-1.1986 0.44454,0.14818 0.78191,0.89079 0.60918,1.34092 -0.25085,0.65372 -1.43214,0.55198 -1.6525,-0.14232 z m -38.75469,-1.68349 c -0.48074,-0.57926 -0.0165,-1.31351 0.8304,-1.31351 0.52652,0 0.63262,0.13312 0.63262,0.79375 0,0.60325 -0.13256,0.81269 -0.55232,0.87266 -0.30378,0.0434 -0.71359,-0.1154 -0.9107,-0.3529 z m 2.22609,0.0249 c -0.28183,-0.73444 0.0191,-1.33837 0.66693,-1.33837 0.8346,0 1.30738,0.7344 0.83736,1.30074 -0.43436,0.52338 -1.30949,0.54527 -1.50429,0.0376 z m 2.34269,0.0741 c -0.70899,-0.709 0.01,-1.7253 0.99797,-1.41158 0.41533,0.13182 0.53648,0.35638 0.47572,0.88176 -0.0908,0.78525 -0.92011,1.0834 -1.47369,0.52982 z m 2.15523,-0.0741 c -0.28183,-0.73444 0.0191,-1.33837 0.66692,-1.33837 0.83461,0 1.30739,0.7344 0.83737,1.30074 -0.43437,0.52338 -1.30949,0.54527 -1.50429,0.0376 z m 10.864,-0.7229 c -0.18708,-0.58944 0.50063,-1.3795 1.04332,-1.1986 0.44455,0.14818 0.78191,0.89079 0.60918,1.34092 -0.25085,0.65372 -1.43214,0.55198 -1.6525,-0.14232 z m 2.45209,0.41091 c -0.71274,-0.71273 0.52011,-2.04284 1.29635,-1.39862 0.612,0.50791 0.34896,1.41727 -0.43646,1.50886 -0.36925,0.0431 -0.7562,-0.007 -0.85989,-0.11024 z m 2.38125,0 c -0.71274,-0.71273 0.52011,-2.04284 1.29635,-1.39862 0.612,0.50791 0.34896,1.41727 -0.43646,1.50886 -0.36925,0.0431 -0.7562,-0.007 -0.85989,-0.11024 z m 2.38125,0 c -0.31474,-0.31474 -0.21149,-1.07483 0.19142,-1.40922 0.56598,-0.46972 1.52863,0.11501 1.42203,0.86376 -0.0825,0.57938 -1.2013,0.95762 -1.61345,0.54546 z m 2.38125,0 c -0.31474,-0.31474 -0.21149,-1.07483 0.19142,-1.40922 0.56598,-0.46972 1.52863,0.11501 1.42203,0.86376 -0.0825,0.57938 -1.2013,0.95762 -1.61345,0.54546 z m 2.38125,0 c -0.31474,-0.31474 -0.21149,-1.07483 0.19142,-1.40922 0.56598,-0.46972 1.52863,0.11501 1.42204,0.86376 -0.0825,0.57938 -1.20131,0.95762 -1.61346,0.54546 z m 2.3691,-0.0121 c -0.33683,-0.33682 -0.17405,-1.35539 0.24213,-1.51509 0.56012,-0.21494 0.54352,-0.21909 1.01727,0.25465 0.31344,0.31345 0.34823,0.54047 0.14188,0.92604 -0.26715,0.49917 -1.04975,0.68594 -1.40128,0.3344 z m 2.11467,-0.20617 c -0.35122,-0.91528 0.61087,-1.76094 1.32712,-1.16651 0.20686,0.17168 0.3406,0.56069 0.29719,0.86446 -0.0984,0.68888 -1.38412,0.92796 -1.62431,0.30205 z m 2.50987,0.032 c -0.59444,-0.71625 0.25123,-1.67834 1.16651,-1.32711 0.62591,0.24018 0.38683,1.52588 -0.30205,1.62431 -0.30377,0.0434 -0.69278,-0.0903 -0.86446,-0.2972 z m 2.19594,-0.22458 c -0.18709,-0.58944 0.50062,-1.3795 1.04332,-1.1986 0.44454,0.14818 0.78191,0.89079 0.60918,1.34092 -0.25085,0.65372 -1.43214,0.55198 -1.6525,-0.14232 z M 87.808902,127.4574 c -0.550957,-0.66386 -0.223576,-1.33563 0.650908,-1.33563 0.9426,0 1.24929,0.82907 0.50737,1.37158 -0.60461,0.4421 -0.76568,0.4371 -1.158278,-0.0359 z m 4.497918,0 c -0.50637,-0.61014 -0.22131,-1.326 0.56431,-1.41716 0.91814,-0.10653 1.33691,0.90985 0.59762,1.45043 -0.60842,0.44489 -0.76891,0.44029 -1.16193,-0.0333 z m -2.48199,-0.26298 c -0.27641,-0.72032 0.10698,-1.23946 0.8516,-1.15311 0.54221,0.0629 0.6938,0.22499 0.6938,0.74192 0,0.51694 -0.15159,0.67904 -0.6938,0.74192 -0.4395,0.051 -0.75165,-0.0703 -0.8516,-0.33073 z m 20.20907,-0.26619 c -0.55095,-0.66386 -0.22357,-1.33562 0.65091,-1.33562 0.5467,0 0.81444,0.14505 0.87812,0.47573 0.10505,0.54548 -0.38804,1.24406 -0.87812,1.24406 -0.18264,0 -0.47555,-0.17288 -0.65091,-0.38417 z m 2.38125,0 c -0.55095,-0.66386 -0.22357,-1.33562 0.65091,-1.33562 0.5467,0 0.81444,0.14505 0.87812,0.47573 0.10505,0.54548 -0.38804,1.24406 -0.87812,1.24406 -0.18264,0 -0.47555,-0.17288 -0.65091,-0.38417 z m 2.38125,0 c -0.55095,-0.66386 -0.22357,-1.33562 0.65091,-1.33562 0.9426,0 1.24929,0.82906 0.50737,1.37157 -0.60461,0.4421 -0.76568,0.4371 -1.15828,-0.0359 z m 2.38125,0 c -0.55095,-0.66386 -0.22357,-1.33562 0.65091,-1.33562 0.5467,0 0.81444,0.14505 0.87812,0.47573 0.10505,0.54548 -0.38804,1.24406 -0.87812,1.24406 -0.18264,0 -0.47555,-0.17288 -0.65091,-0.38417 z m 2.38125,0 c -0.55095,-0.66386 -0.22357,-1.33562 0.65091,-1.33562 0.9426,0 1.24929,0.82906 0.50737,1.37157 -0.60461,0.4421 -0.76568,0.4371 -1.15828,-0.0359 z m 2.4137,0.15176 c -0.55684,-0.35296 -0.26965,-1.47395 0.40212,-1.56959 0.809,-0.11517 1.29665,0.81619 0.72609,1.38675 -0.47228,0.47228 -0.631,0.498 -1.12821,0.18284 z m 2.22146,-0.18677 c -0.24354,-0.24354 -0.37643,-0.61578 -0.2953,-0.8272 0.0811,-0.21142 0.14751,-0.4342 0.14751,-0.49505 0,-0.0609 0.30139,-0.11066 0.66976,-0.11066 0.75571,0 1.13574,0.65359 0.74251,1.27699 -0.38243,0.60627 -0.76674,0.65366 -1.26448,0.15592 z m 2.37284,-0.008 c -0.23517,-0.23517 -0.38542,-0.55409 -0.33388,-0.7087 0.15542,-0.46626 0.88848,-0.8107 1.34916,-0.63392 0.55387,0.21254 0.56442,1.39852 0.0143,1.60961 -0.56105,0.21529 -0.54252,0.2201 -1.02961,-0.26699 z m 2.39719,0.0803 c -0.69111,-0.50535 -0.33759,-1.50476 0.53227,-1.50476 0.73818,0 1.11326,0.66096 0.72468,1.27699 -0.36432,0.57757 -0.69631,0.63773 -1.25695,0.22777 z m -38.98601,-1.81267 c -0.709,-0.70899 0.009,-1.7253 0.99796,-1.41158 0.41534,0.13183 0.53648,0.35638 0.47572,0.88176 -0.0908,0.78525 -0.92011,1.0834 -1.47368,0.52982 z m 22.43707,-0.60597 c -0.55095,-0.66386 -0.22357,-1.33563 0.65091,-1.33563 0.5467,0 0.81444,0.14506 0.87812,0.47574 0.10505,0.54548 -0.38804,1.24406 -0.87812,1.24406 -0.18264,0 -0.47555,-0.17288 -0.65091,-0.38417 z m 2.38125,0 c -0.50636,-0.61013 -0.22131,-1.32599 0.56432,-1.41715 0.5231,-0.0607 0.74782,0.0609 0.87949,0.47571 0.32446,1.02229 -0.77936,1.74205 -1.44381,0.94144 z m 2.38125,0 c -0.55095,-0.66386 -0.22357,-1.33563 0.65091,-1.33563 0.5467,0 0.81444,0.14506 0.87812,0.47574 0.10505,0.54548 -0.38804,1.24406 -0.87812,1.24406 -0.18264,0 -0.47555,-0.17288 -0.65091,-0.38417 z m 4.79495,0.15176 c -0.55684,-0.35296 -0.26965,-1.47395 0.40212,-1.56959 0.809,-0.11517 1.29665,0.81619 0.72609,1.38675 -0.47228,0.47228 -0.631,0.498 -1.12821,0.18284 z m 2.06462,-0.31367 c -0.21843,-0.40815 -0.20992,-0.64528 0.0337,-0.93881 0.49043,-0.59093 1.41433,-0.34983 1.51988,0.39663 0.15113,1.06894 -1.04773,1.48733 -1.55356,0.54218 z m 2.52968,0.11849 c -0.23517,-0.23517 -0.38542,-0.55409 -0.33388,-0.7087 0.15542,-0.46626 0.88848,-0.8107 1.34916,-0.63392 0.55387,0.21254 0.56442,1.39852 0.0143,1.60961 -0.56105,0.21529 -0.54252,0.2201 -1.02961,-0.26699 z m 2.26183,0.0548 c -0.49883,-0.60105 -0.10246,-1.47926 0.66763,-1.47926 0.74551,0 1.11205,0.66252 0.71522,1.29274 -0.36598,0.58123 -0.98588,0.66484 -1.38285,0.18652 z m -38.89375,-1.5875 c -0.49883,-0.60105 -0.10246,-1.47926 0.66763,-1.47926 0.74551,0 1.11205,0.66252 0.71522,1.29274 -0.36598,0.58123 -0.98588,0.66484 -1.38285,0.18652 z m 2.37184,-0.0113 c -0.50637,-0.61013 -0.22131,-1.326 0.56431,-1.41715 0.52311,-0.0607 0.74782,0.0609 0.8795,0.47571 0.32446,1.02229 -0.77937,1.74205 -1.44381,0.94144 z m 2.11667,0 c -0.55096,-0.66386 -0.22358,-1.33563 0.65091,-1.33563 0.54669,0 0.81443,0.14506 0.87812,0.47574 0.10505,0.54548 -0.38804,1.24406 -0.87812,1.24406 -0.18265,0 -0.47556,-0.17288 -0.65091,-0.38417 z m 17.99166,-0.79375 c -0.55095,-0.66386 -0.22357,-1.33563 0.65091,-1.33563 0.5467,0 0.81444,0.14506 0.87812,0.47574 0.10505,0.54548 -0.38804,1.24406 -0.87812,1.24406 -0.18264,0 -0.47555,-0.17288 -0.65091,-0.38417 z m 2.38125,0 c -0.50636,-0.61013 -0.22131,-1.326 0.56432,-1.41715 0.5231,-0.0607 0.74782,0.0609 0.87949,0.47571 0.32446,1.02229 -0.77936,1.74205 -1.44381,0.94144 z"
       id="path1" /></g></svg>
