<?xml version="1.0" encoding="UTF-8" standalone="no"?>
<svg
   xmlns:dc="http://purl.org/dc/elements/1.1/"
   xmlns:cc="http://creativecommons.org/ns#"
   xmlns:rdf="http://www.w3.org/1999/02/22-rdf-syntax-ns#"
   xmlns:svg="http://www.w3.org/2000/svg"
   xmlns="http://www.w3.org/2000/svg"
   xmlns:sodipodi="http://sodipodi.sourceforge.net/DTD/sodipodi-0.dtd"
   xmlns:inkscape="http://www.inkscape.org/namespaces/inkscape"
   width="24"
   height="24"
   viewBox="0 0 24 24"
   version="1.1"
   id="svg4"
   sodipodi:docname="github (cópia 1).svg"
   inkscape:version="0.92.4 (5da689c313, 2019-01-14)">
  <metadata
     id="metadata10">
    <rdf:RDF>
      <cc:Work
         rdf:about="">
        <dc:format>image/svg+xml</dc:format>
        <dc:type
           rdf:resource="http://purl.org/dc/dcmitype/StillImage" />
      </cc:Work>
    </rdf:RDF>
  </metadata>
  <defs
     id="defs8" />
  <sodipodi:namedview
     pagecolor="#ffffff"
     bordercolor="#666666"
     borderopacity="1"
     objecttolerance="10"
     gridtolerance="10"
     guidetolerance="10"
     inkscape:pageopacity="0"
     inkscape:pageshadow="2"
     inkscape:window-width="1440"
     inkscape:window-height="876"
     id="namedview6"
     showgrid="false"
     inkscape:zoom="9.8333333"
     inkscape:cx="-0.86440678"
     inkscape:cy="12"
     inkscape:window-x="1280"
     inkscape:window-y="0"
     inkscape:window-maximized="1"
     inkscape:current-layer="svg4" />
  <path
     d="M 0,0 V 24 H 24 V 0 Z"
     id="path2"
     inkscape:connector-curvature="0"
     sodipodi:nodetypes="ccccc" />
  <path
     inkscape:connector-curvature="0"
     d="M 3.7111802,20.589469 4.4323817,19.831623 4.2401912,19.612846 C 4.134467,19.492775 3.8422439,19.169677 3.5907668,18.895387 l -0.4572184,-0.498682 0.5618823,-0.02495 0.5618823,-0.02495 0.4721102,0.509909 0.4720946,0.509909 0.4620992,-0.511781 0.4620991,-0.511936 0.5624281,0.02651 0.562428,0.02651 -0.624771,0.678475 c -0.3436194,0.373154 -0.6247711,0.709039 -0.6247711,0.746464 0,0.03742 0.3264977,0.39592 0.7255366,0.79683 l 0.7255365,0.728842 -0.6216367,1.56e-4 H 6.2088297 L 5.7030375,20.788755 5.1972296,20.230818 4.6753292,20.788599 4.1534287,21.346536 H 3.5717115 2.9899786 L 3.7111802,20.58869 Z m 4.118396,-0.738198 V 18.35507 h 0.6995733 0.6995733 l 0.516006,0.968983 0.5159902,0.969139 0.509083,-0.96758 0.509082,-0.967579 0.727268,-0.0016 0.727252,-0.0014 v 1.496201 1.496045 h -0.457125 -0.457141 l -2.49e-4,-1.101372 -2.5e-4,-1.101217 -0.602347,1.080477 -0.602348,1.080477 -0.345584,0.02495 -0.3455841,0.02499 -0.6102378,-1.105586 -0.6102379,-1.105738 -0.023234,1.101216 -0.023234,1.101372 H 8.2426648 7.8294982 v -1.496045 z m 5.5687678,0 V 18.35507 h 1.458651 c 1.621495,0 1.848537,0.05458 2.030498,0.494627 0.06237,0.151258 0.09013,0.456424 0.06846,0.755664 -0.02947,0.407303 -0.0789,0.54515 -0.261005,0.727439 -0.217639,0.217842 -0.258338,0.225794 -1.303496,0.252303 l -1.078855,0.02807 v 0.367384 0.367384 h -0.45714 -0.457125 v -1.496045 z m 2.559961,-0.0998 c 0.139874,-0.140342 0.124124,-0.445819 -0.03087,-0.600819 -0.09918,-0.0998 -0.308893,-0.130986 -0.872709,-0.130986 h -0.742112 v 0.415568 0.415568 h 0.772972 c 0.490386,0 0.809445,-0.03587 0.872724,-0.0998 z m 1.512699,0.0998 V 18.35507 h 1.536338 1.536323 l 0.271437,0.24248 c 0.257621,0.230316 0.271437,0.272263 0.271437,0.82521 0,0.461257 -0.03618,0.630915 -0.173728,0.815075 -0.228398,0.305945 -0.392131,0.343214 -1.550918,0.353038 l -0.976609,0.01559 v 0.373934 0.374089 h -0.45714 -0.45714 v -1.496198 z m 2.528228,-0.0499 c 0.200034,-0.07641 0.174102,-0.58585 -0.03555,-0.698123 -0.09263,-0.0499 -0.472157,-0.07797 -0.851922,-0.06549 l -0.684916,0.02339 -0.02542,0.394829 -0.02526,0.394828 h 0.745793 c 0.410188,0 0.804954,-0.02339 0.877261,-0.0499 z m -4.897029,-4.241913 c -0.733863,-0.155935 -1.834829,-0.529089 -2.645211,-0.8985 l -0.626361,-0.285362 -0.81612,0.333858 c -0.854807,0.34992 -2.3558883,0.77079 -3.1014937,0.869653 C 7.2896185,15.661757 7.3916314,15.469952 8.0977696,15.231839 8.7437791,15.013997 9.8190945,14.467287 10.36476,14.07932 L 10.750887,13.804718 9.9343775,13.2683 C 8.8358122,12.546474 8.200188,12.028301 7.1773761,11.020646 4.679134,8.5596721 3.2688068,5.9153185 2.9655435,3.1234499 L 2.9134611,2.6444161 3.3559436,2.8199994 C 5.049777,3.4923932 5.8818331,3.7917893 7.1230638,4.1749227 l 1.412978,0.4363074 0.055825,0.908636 c 0.062998,1.0243401 0.2028253,1.6906524 0.5779748,2.7536644 0.4936761,1.3988971 1.4824634,3.1037395 2.3527074,4.0561935 l 0.379656,0.415568 0.373809,-0.413073 c 1.748317,-1.931885 3.033942,-4.9773043 3.033942,-7.1867539 V 4.5041025 l 1.35062,-0.3949846 C 17.403421,3.8918998 18.619,3.4788268 19.361846,3.1912818 l 1.350635,-0.5226957 v 0.3293357 c 0,0.4757591 -0.299724,1.875124 -0.55209,2.5773014 -1.025073,2.8528394 -3.378451,5.6938278 -6.326442,7.6374078 l -0.852639,0.562147 0.270829,0.203184 c 0.818552,0.614386 1.757719,1.108545 2.636135,1.387046 0.95236,0.302047 0.385551,0.442077 -0.786117,0.194451 z"
     id="path2-3"
     style="fill:#ffffff;stroke-width:1.55935466" />
</svg>
